<svg width="628" height="521" viewBox="0 0 628 521" fill="none" xmlns="http://www.w3.org/2000/svg">
<path d="M89.5739 375.004L92.1047 375.111C95.9474 375.273 99.2248 372.261 99.3867 368.418L99.8263 357.995C99.9882 354.152 96.9766 350.875 93.1339 350.713L90.6031 350.606C86.7604 350.444 83.483 353.456 83.3211 357.298L82.8815 367.722C82.7196 371.565 85.7312 374.842 89.5739 375.004Z" fill="#727377"/>
<path d="M81.0022 187.374L82.6769 282.102H137.027L138.468 187.388C138.471 175.278 129.704 165.2 118.168 163.169C116.781 162.93 115.357 162.803 113.895 162.802L105.587 162.8C92.0152 162.798 81.0057 173.801 81.0022 187.374Z" fill="#07113D"/>
<path d="M99.8262 151.374L115.736 151.379C124.161 151.381 130.993 144.552 130.995 136.127L131 117.615C131.003 107.022 122.419 98.4341 111.827 98.4313L103.762 98.4292C93.1694 98.4264 84.5812 107.01 84.5784 117.603L84.5735 136.115C84.5721 144.54 91.4005 151.372 99.8262 151.374Z" fill="#B95241"/>
<path d="M124.839 125.986L125.151 131.403L125.366 135.06L126.999 134.988C127.119 134.981 127.238 134.975 127.349 134.955C130.072 134.667 132.123 132.481 131.99 130.078C131.923 128.83 131.267 127.792 130.268 127.004C129.373 126.301 128.194 125.926 126.912 125.913H126.904C126.755 125.9 126.629 125.9 126.479 125.913L124.839 125.986Z" fill="#F4A891"/>
<path d="M89.241 126.101L88.9263 131.518L88.7093 135.175L87.0758 135.102C86.9565 135.095 86.8371 135.089 86.7255 135.069C84.0035 134.78 81.9534 132.593 82.0881 130.19C82.1557 128.942 82.8124 127.905 83.8116 127.118C84.7068 126.416 85.8847 126.041 87.1679 126.028H87.1756C87.3249 126.015 87.4512 126.015 87.6005 126.028L89.241 126.101Z" fill="#F4A891"/>
<path d="M105.577 171.713L110.507 171.715C113.579 171.715 116.093 169.203 116.093 166.131L116.099 145.281C116.1 142.209 113.587 139.695 110.515 139.694L105.585 139.693C102.513 139.692 99.9992 142.205 99.9985 145.277L99.9929 166.127C99.9922 169.198 102.505 171.713 105.577 171.713Z" fill="#F4A891"/>
<path d="M86.1059 125.226L86.6104 135.136L86.6844 136.62C86.729 137.598 86.8553 138.567 87.034 139.499C88.5607 147.374 94.5923 153.603 102.273 155.581C103.13 155.805 104.01 155.969 104.905 156.081C105.173 156.126 105.449 156.148 105.718 156.163C106.285 156.223 106.851 156.253 107.425 156.253C107.835 156.253 108.246 156.239 108.663 156.224C109.602 156.172 110.512 156.061 111.415 155.889C111.788 155.822 112.153 155.74 112.519 155.651C113.914 155.323 115.241 154.847 116.501 154.25C116.501 154.25 116.509 154.25 116.516 154.242C122.557 151.388 126.958 145.766 128.161 139.152C128.168 139.13 128.168 139.115 128.168 139.092C128.287 138.376 128.377 137.653 128.43 136.922C128.452 136.691 128.46 136.467 128.467 136.236C128.474 135.998 128.482 135.767 128.474 135.528C128.489 135.252 128.474 134.968 128.46 134.685V134.536L128.43 133.857L128.334 132.09L128.185 129.062V129.033L128.037 125.975L128.03 125.915V125.908L127.971 124.782L127.926 123.902L127.881 123.097L127.867 122.888C127.785 121.487 127.502 120.129 127.092 118.832C126.816 117.922 126.474 117.034 126.093 116.183C126.041 116.042 125.99 115.922 125.93 115.796C125.616 115.095 125.251 114.401 124.856 113.745C124.856 113.738 124.849 113.73 124.849 113.73C123.351 111.224 121.33 109.054 118.944 107.375C118.467 107.04 117.975 106.719 117.475 106.42C113.993 104.376 109.907 103.279 105.597 103.501C99.8326 103.799 94.6635 106.385 91.0609 110.336C90.0016 111.499 89.1364 112.767 88.4274 114.139C87.8378 115.25 87.3529 116.421 86.9349 117.659C86.6662 118.434 86.4723 119.232 86.3299 120.037C86.3299 120.037 86.3299 120.045 86.3299 120.052C86.2853 120.328 86.2476 120.596 86.2183 120.873C86.1583 121.357 86.1136 121.849 86.0913 122.349C86.0466 123.287 86.0543 124.249 86.1059 125.226Z" fill="#FFC7B0"/>
<path d="M99.2876 131.613H99.529C99.9749 131.613 100.341 131.248 100.341 130.802L100.341 127.577C100.341 127.131 99.9763 126.766 99.5297 126.766H99.2883C98.8417 126.766 98.4768 127.131 98.4768 127.577L98.4761 130.802C98.4761 131.248 98.841 131.613 99.2876 131.613Z" fill="#07113D"/>
<path d="M115.57 131.555H115.811C116.258 131.555 116.623 131.19 116.623 130.743L116.623 127.519C116.623 127.073 116.258 126.707 115.812 126.707H115.57C115.124 126.707 114.759 127.072 114.759 127.519L114.758 130.743C114.758 131.19 115.123 131.555 115.57 131.555Z" fill="#07113D"/>
<path d="M95.8956 124.08L103.118 124.082C103.593 124.082 103.981 123.694 103.981 123.219V122.962C103.981 122.487 103.594 122.098 103.118 122.098L95.8963 122.096C95.4211 122.096 95.0325 122.485 95.0325 122.96V123.216C95.0325 123.692 95.4204 124.08 95.8956 124.08Z" fill="#B95241"/>
<path d="M111.929 124.084L119.151 124.086C119.626 124.086 120.015 123.698 120.015 123.223V122.967C120.015 122.491 119.626 122.103 119.152 122.103L111.93 122.101C111.455 122.101 111.066 122.489 111.066 122.964V123.221C111.065 123.696 111.454 124.084 111.929 124.084Z" fill="#B95241"/>
<path d="M102.004 140.764C103.912 143.561 105.666 145.423 108.274 145.02C110.462 144.682 112.236 143.041 113.329 140.608L102.004 140.764Z" fill="white"/>
<path d="M109.867 134.661L105.393 134.659C105.393 134.659 107.505 137.643 109.867 134.661Z" fill="#E48867"/>
<path d="M86.1059 125.226L86.6104 135.136L86.6844 136.62C86.729 137.598 86.8553 138.567 87.034 139.499C88.5607 147.374 94.5923 153.603 102.273 155.581C103.13 155.805 104.01 155.969 104.905 156.081C105.173 156.126 105.449 156.148 105.718 156.163C106.285 156.223 106.851 156.253 107.425 156.253C107.835 156.253 108.246 156.239 108.663 156.224C109.729 156.179 110.774 156.061 111.802 155.882C112.011 155.845 112.213 155.815 112.421 155.77C113.831 155.442 115.166 154.966 116.433 154.369C116.433 154.369 116.441 154.369 116.448 154.362C122.534 151.485 126.973 145.826 128.16 139.153C128.167 139.131 128.167 139.115 128.167 139.093C128.294 138.377 128.384 137.653 128.429 136.923C128.451 136.692 128.459 136.468 128.466 136.237C128.474 135.998 128.481 135.767 128.474 135.529C128.488 135.252 128.474 134.969 128.459 134.686V134.537L128.43 133.858L128.333 132.091L128.185 129.063C127.25 140.152 123.323 154.163 109.498 154.727C90.354 155.505 86.385 134.459 86.0899 122.348C86.0466 123.287 86.0543 124.249 86.1059 125.226Z" fill="#F4A891"/>
<path d="M97.3965 282.102H119.037L119.01 161.124L113.573 160.96L108.475 170.646L102.864 161.287L97.1077 161.38L97.3965 282.102Z" fill="#EAECEE"/>
<path d="M113.479 160.865L116.654 166.245L120.838 163.981L119.376 160.867L113.479 160.865Z" fill="#4D6199"/>
<path d="M102.816 161.208L99.4179 166.24L95.2668 164.823L96.5256 161.207L102.816 161.208Z" fill="#4D6199"/>
<path d="M83.5798 112.074C83.5791 116.139 86.8733 119.435 90.9379 119.436C95.0025 119.437 98.2988 116.142 98.2995 112.078C98.3009 108.013 95.0059 104.717 90.9414 104.715C86.8768 104.715 83.5812 108.009 83.5798 112.074Z" fill="#B95241"/>
<path d="M96.9785 114.53C96.9778 117.657 99.5114 120.193 102.639 120.194C105.766 120.194 108.301 117.661 108.302 114.533C108.303 111.406 105.768 108.871 102.642 108.87C99.5142 108.87 96.9792 111.404 96.9785 114.53Z" fill="#B95241"/>
<path d="M106.226 114.911C106.225 117.829 108.59 120.196 111.508 120.196C114.427 120.197 116.793 117.832 116.794 114.913C116.795 111.995 114.43 109.629 111.511 109.628C108.592 109.627 106.226 111.992 106.226 114.911Z" fill="#B95241"/>
<path d="M116.227 113.498C116.227 116.259 118.465 118.499 121.227 118.5C123.989 118.501 126.229 116.262 126.229 113.5C126.23 110.739 123.991 108.499 121.23 108.498C118.468 108.497 116.228 110.736 116.227 113.498Z" fill="#B95241"/>
<path d="M114.626 102.929C114.626 102.929 104.059 99.9071 98.3958 103.868C92.7333 107.83 89.7126 113.302 89.7126 113.302L111.415 115.195L124.437 113.123L119.439 103.591" fill="#B95241"/>
<path d="M124.059 114.915L126.46 130.895C126.572 131.636 127.407 132.018 128.041 131.618C128.323 131.44 128.502 131.138 128.523 130.805L129.248 119.163C129.248 119.163 125.382 109.537 124.059 114.915Z" fill="#B95241"/>
<path d="M90.8444 116.982L88.4349 132.961C88.3233 133.702 87.4874 134.084 86.8538 133.684C86.5719 133.506 86.3925 133.203 86.3723 132.87L85.6543 118.019C85.6543 118.019 89.5249 111.604 90.8444 116.982Z" fill="#B95241"/>
<path d="M126.319 130.108C126.601 133.976 124.521 151.715 108.48 152.088C92.4387 152.462 89.208 135.292 88.9533 131.702C88.698 128.112 86.3123 128.493 86.3123 129.248L86.4044 138.502C86.4016 149.338 95.1831 158.124 106.02 158.127L108.297 158.128C119.133 158.13 128.674 149.908 128.677 139.073L128.585 130.203C128.585 130.203 126.296 129.778 126.319 130.108Z" fill="#B95241"/>
<path d="M81.0022 186.682L82.6769 281.41H137.027L138.468 186.697C138.471 174.586 129.704 164.509 118.168 162.477C116.781 162.238 115.357 162.111 113.895 162.11L105.587 162.108C92.0152 162.106 81.0057 173.11 81.0022 186.682Z" fill="#07113D"/>
<path d="M99.8262 150.683L115.736 150.687C124.161 150.689 130.993 143.861 130.995 135.435L131 116.923C131.003 106.332 122.419 97.7426 111.827 97.7398L103.762 97.7377C93.1694 97.7349 84.5812 106.319 84.5784 116.911L84.5735 135.423C84.5721 143.849 91.4005 150.681 99.8262 150.683Z" fill="#B95241"/>
<path d="M124.839 125.294L125.151 130.711L125.366 134.368L126.999 134.296C127.119 134.289 127.238 134.283 127.349 134.264C130.072 133.976 132.123 131.79 131.99 129.386C131.923 128.138 131.267 127.101 130.268 126.312C129.373 125.61 128.194 125.235 126.912 125.222H126.904C126.755 125.208 126.629 125.208 126.479 125.222L124.839 125.294Z" fill="#F4A891"/>
<path d="M89.241 125.409L88.9263 130.826L88.7093 134.483L87.0758 134.411C86.9565 134.404 86.8371 134.398 86.7255 134.377C84.0035 134.088 81.9534 131.901 82.0881 129.498C82.1557 128.25 82.8124 127.213 83.8116 126.425C84.7068 125.723 85.8847 125.349 87.1679 125.336H87.1756C87.3249 125.323 87.4512 125.323 87.6005 125.336L89.241 125.409Z" fill="#F4A891"/>
<path d="M105.577 171.022L110.507 171.023C113.579 171.024 116.093 168.511 116.093 165.44L116.099 144.589C116.1 141.518 113.587 139.004 110.515 139.003L105.585 139.001C102.513 139.001 99.9992 141.513 99.9985 144.585L99.9929 165.435C99.9922 168.507 102.505 171.021 105.577 171.022Z" fill="#F4A891"/>
<path d="M86.1059 124.534L86.6104 134.445L86.6844 135.929C86.729 136.907 86.8553 137.876 87.034 138.808C88.5607 146.683 94.5923 152.912 102.273 154.89C103.13 155.114 104.01 155.278 104.905 155.39C105.173 155.435 105.449 155.457 105.718 155.473C106.285 155.533 106.851 155.563 107.425 155.563C107.835 155.563 108.246 155.548 108.663 155.533C109.602 155.482 110.512 155.37 111.415 155.198C111.788 155.131 112.153 155.05 112.519 154.96C113.914 154.632 115.241 154.156 116.501 153.559C116.501 153.559 116.509 153.559 116.516 153.552C122.557 150.697 126.958 145.075 128.161 138.461C128.168 138.439 128.168 138.424 128.168 138.401C128.287 137.685 128.377 136.962 128.43 136.231C128.452 136 128.46 135.776 128.467 135.545C128.474 135.307 128.482 135.076 128.474 134.837C128.489 134.561 128.474 134.278 128.46 133.994V133.845L128.43 133.166L128.334 131.398L128.185 128.371V128.342L128.037 125.284L128.03 125.224V125.216L127.971 124.09L127.926 123.21L127.881 122.405L127.867 122.196C127.785 120.794 127.502 119.436 127.092 118.139C126.816 117.229 126.474 116.342 126.093 115.491C126.041 115.35 125.99 115.23 125.93 115.104C125.616 114.403 125.251 113.709 124.856 113.053C124.856 113.046 124.849 113.038 124.849 113.038C123.351 110.532 121.33 108.361 118.944 106.683C118.467 106.348 117.975 106.027 117.475 105.728C113.993 103.683 109.907 102.587 105.597 102.809C99.8326 103.106 94.6635 105.692 91.0609 109.644C90.0016 110.807 89.1364 112.075 88.4274 113.447C87.8378 114.558 87.3529 115.728 86.9349 116.966C86.6662 117.742 86.4723 118.54 86.3299 119.345C86.3299 119.345 86.3299 119.353 86.3299 119.36C86.2853 119.636 86.2476 119.904 86.2183 120.18C86.1583 120.665 86.1136 121.157 86.0913 121.657C86.0466 122.595 86.0543 123.558 86.1059 124.534Z" fill="#FFC7B0"/>
<path d="M99.2876 130.921H99.529C99.9756 130.921 100.341 130.556 100.341 130.11L100.341 126.885C100.341 126.439 99.9763 126.074 99.5297 126.074H99.2883C98.8417 126.074 98.4768 126.439 98.4768 126.885L98.4761 130.11C98.4761 130.556 98.841 130.921 99.2876 130.921Z" fill="#07113D"/>
<path d="M115.57 130.863H115.811C116.258 130.863 116.623 130.498 116.623 130.052L116.623 126.827C116.623 126.381 116.258 126.016 115.812 126.016H115.57C115.124 126.016 114.759 126.381 114.759 126.827L114.758 130.052C114.758 130.498 115.123 130.863 115.57 130.863Z" fill="#07113D"/>
<path d="M95.8956 123.389L103.118 123.391C103.593 123.391 103.981 123.003 103.981 122.528V122.271C103.981 121.796 103.594 121.407 103.118 121.407L95.8963 121.405C95.4211 121.405 95.0325 121.794 95.0325 122.268V122.525C95.0325 123 95.4204 123.389 95.8956 123.389Z" fill="#B95241"/>
<path d="M111.929 123.393L119.151 123.395C119.626 123.395 120.015 123.006 120.015 122.532V122.275C120.015 121.8 119.626 121.411 119.152 121.411L111.93 121.409C111.455 121.409 111.066 121.798 111.066 122.272V122.529C111.065 123.004 111.454 123.393 111.929 123.393Z" fill="#B95241"/>
<path d="M102.004 140.073C103.912 142.87 105.666 144.732 108.274 144.328C110.462 143.991 112.236 142.349 113.329 139.917L102.004 140.073Z" fill="white"/>
<path d="M109.867 133.969L105.393 133.968C105.393 133.968 107.505 136.951 109.867 133.969Z" fill="#E48867"/>
<path d="M86.1059 124.534L86.6104 134.445L86.6844 135.929C86.729 136.907 86.8553 137.876 87.034 138.808C88.5607 146.683 94.5923 152.912 102.273 154.89C103.13 155.114 104.01 155.278 104.905 155.39C105.173 155.435 105.449 155.457 105.718 155.473C106.285 155.533 106.851 155.563 107.425 155.563C107.835 155.563 108.246 155.548 108.663 155.533C109.729 155.489 110.774 155.37 111.802 155.191C112.011 155.154 112.213 155.124 112.421 155.08C113.831 154.752 115.166 154.275 116.433 153.679C116.433 153.679 116.441 153.679 116.448 153.672C122.534 150.795 126.973 145.136 128.16 138.462C128.167 138.44 128.167 138.424 128.167 138.402C128.294 137.686 128.384 136.963 128.429 136.232C128.451 136.001 128.459 135.777 128.466 135.546C128.474 135.307 128.481 135.076 128.474 134.838C128.488 134.561 128.474 134.279 128.459 133.995V133.846L128.43 133.167L128.333 131.399L128.185 128.372C127.25 139.461 123.323 153.471 109.498 154.035C90.354 154.813 86.385 133.767 86.0899 121.657C86.0466 122.595 86.0543 123.558 86.1059 124.534Z" fill="#F4A891"/>
<path d="M97.3965 281.41L119.037 281.411L119.01 160.433L113.573 160.268L108.475 169.954L102.864 160.596L97.1077 160.688L97.3965 281.41Z" fill="#EAECEE"/>
<path d="M113.479 160.173L116.654 165.553L120.838 163.29L119.376 160.176L113.479 160.173Z" fill="white"/>
<path d="M102.816 160.517L99.4179 165.548L95.2668 164.132L96.5256 160.515L102.816 160.517Z" fill="white"/>
<path d="M83.5798 111.383C83.5791 115.447 86.8733 118.744 90.9379 118.745C95.0025 118.746 98.2988 115.451 98.2995 111.387C98.3009 107.322 95.0059 104.026 90.9414 104.025C86.8768 104.023 83.5812 107.317 83.5798 111.383Z" fill="#B95241"/>
<path d="M96.9785 113.84C96.9778 116.966 99.5114 119.502 102.639 119.503C105.766 119.503 108.301 116.969 108.302 113.843C108.303 110.716 105.768 108.181 102.642 108.18C99.5142 108.179 96.9792 110.712 96.9785 113.84Z" fill="#B95241"/>
<path d="M106.226 114.219C106.225 117.137 108.59 119.504 111.508 119.505C114.427 119.506 116.793 117.14 116.794 114.222C116.795 111.304 114.43 108.937 111.511 108.936C108.592 108.936 106.226 111.301 106.226 114.219Z" fill="#B95241"/>
<path d="M116.227 112.806C116.227 115.568 118.465 117.808 121.227 117.809C123.989 117.809 126.229 115.571 126.229 112.809C126.23 110.047 123.991 107.807 121.23 107.807C118.468 107.806 116.228 110.044 116.227 112.806Z" fill="#B95241"/>
<path d="M114.626 102.238C114.626 102.238 104.059 99.2156 98.3958 103.177C92.7333 107.138 89.7126 112.611 89.7126 112.611L111.415 114.504L124.437 112.431L119.439 102.9" fill="#B95241"/>
<path d="M124.059 114.224L126.46 130.203C126.572 130.944 127.407 131.327 128.041 130.927C128.323 130.749 128.502 130.446 128.523 130.114L129.248 118.471C129.248 118.471 125.382 108.846 124.059 114.224Z" fill="#B95241"/>
<path d="M90.8444 116.291L88.4349 132.269C88.3233 133.01 87.4874 133.392 86.8538 132.992C86.5719 132.814 86.3925 132.511 86.3723 132.179L85.6543 117.328C85.6543 117.328 89.5249 110.912 90.8444 116.291Z" fill="#B95241"/>
<path d="M126.319 129.416C126.601 133.285 124.521 151.023 108.48 151.397C92.4387 151.77 89.208 134.601 88.9533 131.01C88.698 127.42 86.3123 127.801 86.3123 128.556L86.4044 137.81C86.4016 148.645 95.1831 157.432 106.02 157.435L108.297 157.435C119.133 157.438 128.674 149.216 128.677 138.38L128.585 129.511C128.585 129.511 126.296 129.086 126.319 129.416Z" fill="#B95241"/>
<path d="M112.935 448.305L124.362 448.638L124.67 437.082L113.242 436.749L112.935 448.305Z" fill="#080A2C"/>
<path d="M110.178 451.46L127.702 451.976C127.832 447.183 124.834 443.207 121.007 443.094L117.339 442.986C113.513 442.874 110.307 446.668 110.178 451.46Z" fill="#727377"/>
<path d="M109.901 454.807L127.986 455.339L128.081 451.789L109.997 451.257L109.901 454.807Z" fill="#07113D"/>
<path d="M110.836 293.309L110.92 296.826L111.716 432.44V432.448L111.875 439.177L111.906 440.238V440.301L125.274 440.771L126.601 440.82L132.733 360.79L135.515 298.691L135.598 296.826L135.698 294.609L135.721 294.163L113.641 293.406L112.01 293.349L110.836 293.309Z" fill="#090A27"/>
<path opacity="0.62" d="M108.466 309.718C108.466 309.718 108.466 310.013 108.481 310.563C108.488 310.084 108.488 309.789 108.466 309.718Z" fill="#080A2C"/>
<path d="M82.8054 280.022L84.425 296.618L135.594 296.964L136.992 280.022H82.8054Z" fill="#090A27"/>
<path opacity="0.16" d="M108.466 309.718C108.466 309.718 108.466 310.013 108.481 310.563C108.488 310.084 108.488 309.789 108.466 309.718Z" fill="#080A2C"/>
<path opacity="0.12" d="M122.249 288.907C126.908 288.86 130.68 292.856 130.572 297.728C130.181 315.375 129.287 367.783 126.971 370.799C123.945 374.739 116.766 373.069 115.743 370.614C114.955 368.72 114.26 315.332 114.081 297.621C114.033 292.853 117.068 289.146 121.626 289.1L122.249 288.907Z" fill="#4D6199"/>
<path d="M127.458 436.939L111.355 436.717L111.673 440.596L127.139 441.039L127.458 436.939Z" fill="#606163"/>
<path d="M64.3177 291.053L61.983 282.663C61.7108 281.684 60.7653 281.092 59.8826 281.347L59.7208 281.393C58.8374 281.648 58.3378 282.657 58.6099 283.635L60.944 292.026C61.2161 293.005 62.1616 293.597 63.045 293.342L63.2069 293.295C64.0895 293.04 64.5899 292.031 64.3177 291.053Z" fill="#F4A891"/>
<path d="M51.0543 281.263C51.0543 281.263 50.397 287.027 50.1639 288.686C49.7131 291.896 50.2448 293.641 52.1937 294.224L56.3762 294.252C58.6803 293.905 59.7521 293.623 60.3089 291.665L62.1426 285.219C62.6995 283.261 61.7317 277.385 59.7828 276.802L55.8292 275.417C53.8803 274.834 51.6111 279.304 51.0543 281.263Z" fill="#F4A891"/>
<path d="M57.0134 292.431L56.4559 300.057C56.3289 301.286 56.8738 302.367 57.6665 302.461C58.4592 302.556 59.2128 301.627 59.3398 300.399L59.8973 292.773C60.0243 291.545 59.4794 290.463 58.6867 290.368C57.894 290.274 57.1411 291.202 57.0134 292.431Z" fill="#F4A891"/>
<path d="M53.4128 293.744L52.8553 301.37C52.7283 302.598 53.2733 303.68 54.0659 303.775C54.8593 303.869 55.6122 302.94 55.7392 301.712L56.2967 294.086C56.4237 292.857 55.8788 291.776 55.0861 291.682C54.2927 291.587 53.5398 292.515 53.4128 293.744Z" fill="#F4A891"/>
<path d="M50.0942 291.323L49.5367 298.949C49.4097 300.178 49.9547 301.259 50.7473 301.353C51.5407 301.448 52.2936 300.519 52.4206 299.291L52.9781 291.665C53.1051 290.436 52.5602 289.354 51.7675 289.26C50.9741 289.166 50.2212 290.095 50.0942 291.323Z" fill="#F4A891"/>
<path d="M51.074 273.784L50.4551 279.306L62.1812 279.804L62.2224 274.515L51.074 273.784Z" fill="white"/>
<path d="M99.6072 166.442C99.6072 166.442 74.7956 165.752 64.4852 205.948C53.4778 248.86 50.1438 275.709 50.1438 275.709L62.4065 277.025L76.0655 216.48L99.6072 166.442Z" fill="#07113D"/>
<path d="M108.28 176.834C109.044 176.834 109.663 176.214 109.663 175.451C109.663 174.687 109.044 174.068 108.28 174.068C107.517 174.068 106.897 174.687 106.897 175.451C106.897 176.214 107.517 176.834 108.28 176.834Z" fill="#4D6199"/>
<path d="M108.28 196.241C109.044 196.241 109.663 195.622 109.663 194.858C109.663 194.094 109.044 193.475 108.28 193.475C107.517 193.475 106.897 194.094 106.897 194.858C106.897 195.622 107.517 196.241 108.28 196.241Z" fill="#4D6199"/>
<path d="M108.28 215.648C109.044 215.648 109.663 215.029 109.663 214.265C109.663 213.501 109.044 212.882 108.28 212.882C107.517 212.882 106.897 213.501 106.897 214.265C106.897 215.029 107.517 215.648 108.28 215.648Z" fill="#4D6199"/>
<path d="M106.897 233.672C106.897 234.436 107.516 235.055 108.28 235.055C109.045 235.055 109.045 232.289 108.28 232.289C107.517 232.289 106.897 232.908 106.897 233.672Z" fill="#4D6199"/>
<path d="M108.28 254.462C109.044 254.462 109.663 253.843 109.663 253.079C109.663 252.315 109.044 251.696 108.28 251.696C107.517 251.696 106.897 252.315 106.897 253.079C106.897 253.843 107.517 254.462 108.28 254.462Z" fill="#4D6199"/>
<path d="M108.28 273.869C109.044 273.869 109.663 273.25 109.663 272.486C109.663 271.723 109.044 271.103 108.28 271.103C107.517 271.103 106.897 271.723 106.897 272.486C106.897 273.25 107.517 273.869 108.28 273.869Z" fill="#4D6199"/>
<path d="M89.8829 365.481L92.5672 365.594C97.5284 365.804 101.758 361.916 101.968 356.955L104.704 292.099C104.914 287.138 101.026 282.908 96.0652 282.698L93.3808 282.585C88.4196 282.376 84.1897 286.264 83.9804 291.224L81.2437 356.082C81.0343 361.041 84.9217 365.272 89.8829 365.481Z" fill="#090A27"/>
<path opacity="0.49" d="M137.981 211.331C137.981 211.331 134.525 225.425 130.27 224.894C129.238 224.765 128.138 243.226 128.94 246.168C131.333 254.944 131.333 280.473 131.333 280.473L137.183 280.739L137.981 211.331Z" fill="#0A0A17"/>
<path d="M106.785 211.413L112.58 217.914C113.256 218.672 113.243 219.787 112.551 220.392L112.424 220.503C111.732 221.108 110.613 220.983 109.937 220.226L104.142 213.725C103.466 212.967 103.479 211.852 104.171 211.247L104.298 211.136C104.99 210.53 106.11 210.656 106.785 211.413Z" fill="#F4A891"/>
<path d="M107.848 227.864C107.848 227.864 102.644 225.301 101.123 224.599C98.1794 223.243 96.9987 221.852 97.5618 219.898L99.7996 216.364C101.338 214.614 102.154 213.865 104.103 214.455L110.517 216.398C112.465 216.989 116.885 220.98 116.321 222.934L115.348 227.009C114.784 228.963 109.797 228.454 107.848 227.864Z" fill="#F4A891"/>
<path d="M102.511 217.229L98.2534 214.805C97.5486 214.447 97.2604 213.567 97.6128 212.851C97.9652 212.134 98.8304 211.841 99.5352 212.2L103.792 214.624C104.497 214.982 104.785 215.862 104.433 216.578C104.08 217.295 103.215 217.588 102.511 217.229Z" fill="#F4A891"/>
<path d="M100.003 219.82L95.7456 217.396C95.0408 217.037 94.7526 216.158 95.1057 215.442C95.4581 214.725 96.3233 214.432 97.0281 214.791L101.285 217.215C101.99 217.573 102.278 218.453 101.926 219.169C101.573 219.886 100.707 220.179 100.003 219.82Z" fill="#F4A891"/>
<path d="M99.5847 223.591L95.3276 221.167C94.6228 220.808 94.3347 219.929 94.687 219.212C95.0394 218.496 95.9047 218.203 96.6094 218.561L100.867 220.985C101.571 221.344 101.859 222.223 101.507 222.94C101.155 223.657 100.289 223.95 99.5847 223.591Z" fill="#F4A891"/>
<path d="M115.82 218.688L112.363 216.738L107.931 228.173L113.516 231.276L115.82 218.688Z" fill="white"/>
<path d="M130.003 168.25C149.416 185.801 167.233 222.234 156.596 239.254C145.958 256.273 109.615 230.833 109.615 230.833L114.668 217.358C114.668 217.358 144.363 234.467 144.363 226.489C144.363 217.432 127.875 195.109 127.875 195.109L130.003 168.25Z" fill="#07113D"/>
<path d="M540.73 169.406C554.128 169.406 564.988 157.971 564.988 143.865C564.988 129.759 554.128 118.324 540.73 118.324C527.333 118.324 516.473 129.759 516.473 143.865C516.473 157.971 527.333 169.406 540.73 169.406Z" fill="#EAA64F"/>
<path d="M523.524 166.668C530.73 166.668 536.571 160.607 536.571 153.13C536.571 145.653 530.73 139.592 523.524 139.592C516.318 139.592 510.477 145.653 510.477 153.13C510.477 160.607 516.318 166.668 523.524 166.668Z" fill="#EAA64F"/>
<path d="M558.204 167.192C565.41 167.192 571.251 161.131 571.251 153.654C571.251 146.177 565.41 140.116 558.204 140.116C550.998 140.116 545.157 146.177 545.157 153.654C545.157 161.131 550.998 167.192 558.204 167.192Z" fill="#EAA64F"/>
<path d="M534.466 172.782C541.672 172.782 547.514 166.721 547.514 159.244C547.514 151.767 541.672 145.706 534.466 145.706C527.261 145.706 521.419 151.767 521.419 159.244C521.419 166.721 527.261 172.782 534.466 172.782Z" fill="#EAA64F"/>
<path d="M549.45 172.782C556.656 172.782 562.497 166.721 562.497 159.244C562.497 151.767 556.656 145.706 549.45 145.706C542.244 145.706 536.403 151.767 536.403 159.244C536.403 166.721 542.244 172.782 549.45 172.782Z" fill="#EAA64F"/>
<path d="M549.294 181.631H533.744L534.085 167.167H549.635L549.294 181.631Z" fill="#F4A891"/>
<path d="M565.047 148.362C565.059 150.294 563.707 152.016 561.914 152.415C561.749 152.452 561.577 152.48 561.399 152.494C561.32 152.513 561.228 152.509 561.135 152.512L559.919 152.523L559.896 149.89L559.892 149.3L559.859 144.521L561.082 144.51C561.196 144.508 561.295 144.513 561.401 144.525L561.408 144.526C561.565 144.533 561.72 144.554 561.868 144.583C561.868 144.583 561.876 144.576 561.875 144.583C562.644 144.713 563.34 145.062 563.872 145.602C564.586 146.328 565.037 147.263 565.047 148.362Z" fill="#F4A891"/>
<path d="M517.975 148.362C517.964 150.294 519.316 152.016 521.109 152.415C521.274 152.452 521.445 152.48 521.624 152.494C521.703 152.513 521.795 152.509 521.888 152.512L523.103 152.523L523.127 149.89L523.13 149.3L523.163 144.521L521.941 144.51C521.827 144.508 521.728 144.513 521.621 144.525H521.614C521.458 144.532 521.302 144.554 521.154 144.583C521.154 144.583 521.147 144.576 521.147 144.583C520.378 144.713 519.683 145.062 519.151 145.602C518.436 146.328 517.986 147.263 517.975 148.362Z" fill="#F4A891"/>
<path d="M561.17 151.628V152.292L561.162 152.432C561.162 152.713 561.162 152.995 561.14 153.268C561.14 153.502 561.117 153.728 561.102 153.97C561.102 154.041 561.087 154.11 561.079 154.189C560.846 157.109 559.988 159.864 558.664 162.316C558.596 162.44 558.529 162.565 558.461 162.683C556.294 166.492 552.976 169.529 548.988 171.27C548.98 171.278 548.973 171.278 548.973 171.278C547.43 171.957 545.79 172.433 544.074 172.676C543.442 172.769 542.81 172.832 542.171 172.871C541.915 172.886 541.659 172.886 541.395 172.886C540.462 172.894 539.544 172.839 538.642 172.707C538.386 172.676 538.123 172.645 537.874 172.59C529.44 171.115 522.818 164.174 521.562 155.461C521.434 154.533 521.351 153.572 521.351 152.604L521.336 151.137L521.29 144.602L521.267 141.338C521.26 140.839 521.267 140.339 521.29 139.847C521.328 138.895 521.411 137.958 521.554 137.044C521.727 135.967 521.99 134.921 522.374 133.906C522.825 132.703 523.337 131.555 523.946 130.47C524.676 129.159 525.541 127.949 526.595 126.856C530.183 123.109 535.21 120.782 540.702 120.735C544.81 120.696 548.656 121.961 551.876 124.123C552.343 124.444 552.794 124.779 553.238 125.13C555.082 126.606 556.677 128.417 557.91 130.47C558.151 130.853 558.377 131.251 558.587 131.657C558.587 131.657 558.595 131.665 558.595 131.673C558.941 132.336 559.264 133.031 559.528 133.742C559.581 133.867 559.626 133.984 559.671 134.132C559.995 134.983 560.288 135.873 560.514 136.786C560.844 138.082 561.063 139.433 561.078 140.822L561.086 141.025L561.094 141.821L561.101 142.695L561.108 143.804V143.812L561.116 143.874V144.061L561.124 144.584L561.146 149.347V149.878L561.17 151.628Z" fill="#FFC7B0"/>
<path d="M562.027 143.041C562.019 143.065 562.019 143.08 562.019 143.095C561.959 143.626 561.914 144.11 561.884 144.508C561.876 144.547 561.876 144.571 561.876 144.571C561.816 145.383 561.207 146.031 560.432 146.133C560.417 146.133 560.402 146.133 560.394 146.14C559.748 146.219 559.115 145.898 558.777 145.321L556.49 141.401C553.367 135.21 533.602 134.64 533.602 134.64C532.225 134.702 530.938 134.18 529.99 133.282C529.539 132.86 529.17 132.352 528.899 131.791C528.447 130.885 528.244 129.831 528.387 128.722C528.719 126.185 530.871 124.32 533.338 124.202L555.038 123.149C562.155 129.339 562.276 139.27 562.027 143.041Z" fill="#EAA64F"/>
<path d="M538.29 154.094C538.29 154.094 538.548 155.571 540.564 155.459C542.337 155.36 542.489 154.067 542.489 154.067L538.29 154.094Z" fill="#F4A891"/>
<path d="M536.459 143.364C536.337 143.364 536.213 143.331 536.101 143.263C533.308 141.568 530.554 143.037 530.438 143.101C530.093 143.29 529.663 143.154 529.48 142.795C529.296 142.437 529.426 141.993 529.77 141.801C529.914 141.721 533.328 139.873 536.817 141.991C537.155 142.196 537.27 142.647 537.072 142.998C536.94 143.233 536.702 143.364 536.459 143.364Z" fill="#D09443"/>
<g opacity="0.18">
<path d="M536.437 152.189C536.424 153.027 534.723 153.677 532.636 153.642C530.55 153.607 528.87 152.9 528.883 152.063C528.896 151.226 530.597 150.575 532.684 150.61C534.769 150.645 536.45 151.352 536.437 152.189Z" fill="#D93838"/>
</g>
<path d="M562.027 143.041C562.02 143.065 562.02 143.08 562.02 143.095C561.974 143.845 561.907 144.337 561.884 144.508C561.877 144.547 561.877 144.571 561.877 144.571C560.763 137.069 542.864 130.409 532.141 130.994C530.938 131.057 529.862 131.346 528.899 131.791C521.285 135.335 520.773 149.263 520.668 148.756C514.272 118.504 539.854 117.918 539.854 117.918C546.881 118.183 551.72 120.26 555.038 123.149C562.155 129.339 562.276 139.27 562.027 143.041Z" fill="#EAA64F"/>
<path d="M532.204 147.988V145.23C532.204 144.843 532.52 144.527 532.907 144.527H533.194C533.581 144.527 533.897 144.843 533.897 145.23V147.988C533.897 148.375 533.581 148.691 533.194 148.691H532.907C532.521 148.691 532.204 148.374 532.204 147.988Z" fill="#07113D"/>
<path d="M552.165 143.364C552.044 143.364 551.919 143.331 551.807 143.263C549.015 141.569 546.261 143.037 546.145 143.101C545.799 143.29 545.37 143.154 545.186 142.795C545.002 142.437 545.132 141.993 545.477 141.801C545.62 141.721 549.031 139.872 552.524 141.991C552.861 142.196 552.976 142.647 552.778 142.998C552.646 143.233 552.409 143.364 552.165 143.364Z" fill="#D09443"/>
<g opacity="0.18">
<path d="M552.143 152.189C552.13 153.027 550.429 153.677 548.343 153.642C546.256 153.607 544.576 152.901 544.589 152.063C544.602 151.226 546.304 150.576 548.39 150.61C550.476 150.645 552.157 151.352 552.143 152.189Z" fill="#D93838"/>
</g>
<path d="M547.911 147.988V145.23C547.911 144.843 548.227 144.527 548.614 144.527H548.901C549.288 144.527 549.604 144.843 549.604 145.23V147.988C549.604 148.375 549.288 148.691 548.901 148.691H548.614C548.227 148.691 547.911 148.374 547.911 147.988Z" fill="#07113D"/>
<path d="M534.91 159.618L547.074 159.553C547.074 159.553 545.563 163.735 541.242 163.977C536.604 164.237 534.91 159.618 534.91 159.618Z" fill="white"/>
<path d="M548.862 372.395H541.142C539.973 372.395 539.026 371.447 539.026 370.278V365.332H550.979V370.278C550.978 371.447 550.03 372.395 548.862 372.395Z" fill="#2B1B40"/>
<path d="M548.548 370.498H541.863C540.408 370.498 539.229 369.319 539.229 367.864V348.535C539.229 345.662 541.558 343.332 544.431 343.332H545.98C548.853 343.332 551.182 345.662 551.182 348.535V367.864C551.182 369.319 550.002 370.498 548.548 370.498Z" fill="#B95241"/>
<path d="M541.152 349.981L541.568 358.843C541.665 360.919 543.377 362.553 545.456 362.553C547.605 362.553 549.348 360.81 549.348 358.661V344.352L545.724 344.703C543.037 344.962 541.026 347.285 541.152 349.981Z" fill="#DE9986"/>
<path d="M548.319 367.986H541.956C541.24 367.986 540.655 367.4 540.655 366.685V366.298C540.655 365.582 541.24 364.997 541.956 364.997H548.319C549.035 364.997 549.62 365.582 549.62 366.298V366.685C549.62 367.401 549.035 367.986 548.319 367.986Z" fill="#DB734C"/>
<path d="M555.933 353.611C552.387 355.03 542.674 354.073 542.014 352.281C540.152 347.228 542.811 345.101 542.811 345.101L554.514 333.664L555.933 353.611Z" fill="#DE9986"/>
<path d="M555.507 354.112C560.036 353.893 563.51 346.969 563.291 342.44L561.622 309.88C561.403 305.35 557.518 301.823 552.989 302.042C548.46 302.261 544.933 306.146 545.151 310.676L546.8 344.035C547.02 348.566 550.978 354.331 555.507 354.112Z" fill="#F4A891"/>
<path d="M552.358 286.731C552.27 287.514 552.834 288.219 553.617 288.307C554.4 288.395 555.105 287.831 555.193 287.048C555.281 286.265 554.717 285.56 553.934 285.472C553.152 285.384 552.446 285.948 552.358 286.731Z" fill="#061D48"/>
<path d="M534.431 451.122H542.15C543.319 451.122 544.267 450.175 544.267 449.005V444.059H532.314V449.005C532.314 450.175 533.261 451.122 534.431 451.122Z" fill="#2B1B40"/>
<path d="M534.744 446.301H541.429C542.884 446.301 544.063 445.121 544.063 443.667V424.337C544.063 421.464 541.734 419.135 538.86 419.135H537.312C534.439 419.135 532.109 421.464 532.109 424.337V443.667C532.11 445.121 533.289 446.301 534.744 446.301Z" fill="#B95241"/>
<path d="M523.982 350.917C527.299 379.498 531.545 408.413 533.599 421.966C533.721 422.756 533.836 423.49 533.942 424.174C534.504 427.842 534.83 429.911 534.83 429.911L541.961 429.504L541.716 424.321L541.57 421.052L538.261 350.037L535.05 280.921L533.811 254.288C533.811 254.288 524.032 253.066 519.957 281.59C519.664 283.635 519.492 286.137 519.419 289.038V289.046C519.069 303.308 521.203 326.998 523.982 350.917Z" fill="#F4A891"/>
<path d="M542.139 425.783L541.724 434.645C541.626 436.722 539.914 438.355 537.836 438.355C535.686 438.355 533.944 436.613 533.944 434.463V420.154L537.568 420.505C540.255 420.765 542.265 423.086 542.139 425.783Z" fill="#F4A891"/>
<path d="M534.972 443.788H541.336C542.051 443.788 542.637 443.203 542.637 442.487V442.1C542.637 441.385 542.051 440.799 541.336 440.799H534.972C534.257 440.799 533.672 441.385 533.672 442.1V442.487C533.672 443.203 534.257 443.788 534.972 443.788Z" fill="#DB734C"/>
<path d="M523.186 338.002C523.356 339.928 523.636 342.801 524.319 347.744C525.338 352.955 528.171 356.262 531.455 356.013C533.957 355.818 536.154 353.343 537.572 347.178L537.345 337.776C536.893 337.775 523.413 338.002 523.186 338.002Z" fill="#FFC7B0"/>
<path d="M559.568 249.084C559.727 249.699 562.285 250.32 563.824 257.862C566.484 270.894 581.281 333.042 581.281 333.042L516.479 335.336C516.479 335.336 509.024 311.25 515.906 268.814C516.834 263.086 518.568 254.17 521.8 249.35L559.568 249.084Z" fill="#1C2751"/>
<path opacity="0.17" d="M562.849 335.082C562.398 334.998 546.536 334.816 546.536 334.816V336.678L563.026 336.766L562.849 335.082Z" fill="#B95241"/>
<path d="M521.701 217.702L521.765 215.943L519.652 198.108C520.222 181.431 534.629 178.198 534.629 178.198L540.808 208.259L546.102 179.006C546.102 179.006 562.723 180.855 563.292 199.056L561.052 213.533L561.236 217.012L561.672 225.392L566.37 269.195H516.288L521.398 225.872L521.701 217.702Z" fill="#D93838"/>
<path opacity="0.18" d="M521.398 225.873L521.701 217.702C531.15 222.497 541.061 216.532 541.061 216.532C552.198 221.44 558.182 219.378 561.237 217.013L561.673 225.393" fill="#240940"/>
<path d="M524.754 198.34C524.754 198.34 517.827 215.586 514.172 236.054C512.738 244.083 542.285 232.398 542.285 232.398L543.432 238.993C543.432 238.993 502.429 261.645 505.583 234.405C508.987 205.015 517.093 194.339 520.122 193.581C523.149 192.822 525.318 194.832 524.754 198.34Z" fill="#FFC7B0"/>
<path d="M532.757 178.946C532.757 178.946 505.583 181.934 504.579 235.552L515.045 237.273C515.045 237.273 516.332 217.24 525.186 205.856C530.811 198.624 532.757 178.946 532.757 178.946Z" fill="#D93838"/>
<path d="M504.006 233.976L516.042 233.248L515.619 237.704L505.297 241.718L504.006 233.976Z" fill="white"/>
<path d="M552.952 189.551C552.952 189.551 573.351 206.682 580.876 226.065C584.987 236.651 579.91 260.766 579.91 260.766L587.204 262.14C587.204 262.14 597.375 236.768 589.073 222.86C573.91 197.455 558.342 182.796 555.266 183.326C552.189 183.857 551.018 186.571 552.952 189.551Z" fill="#FFC7B0"/>
<path d="M575.62 269.38L578.484 262.714C578.818 261.937 579.665 261.554 580.365 261.863L580.494 261.919C581.194 262.228 581.494 263.117 581.16 263.895L578.296 270.56C577.962 271.338 577.115 271.721 576.415 271.412L576.286 271.355C575.586 271.046 575.286 270.157 575.62 269.38Z" fill="#FFC7B0"/>
<path d="M587.664 262.779C587.664 262.779 587.562 267.611 587.569 269.007C587.583 271.708 586.949 273.089 585.275 273.352L581.818 272.909C579.955 272.364 579.101 272.012 578.86 270.333L578.066 264.806C577.825 263.127 579.28 258.384 580.954 258.121L584.374 257.419C586.049 257.155 587.423 261.1 587.664 262.779Z" fill="#FFC7B0"/>
<path d="M581.496 271.334L581.104 277.692C581.072 278.72 580.501 279.553 579.836 279.542C579.171 279.53 578.653 278.68 578.686 277.651L579.077 271.293C579.109 270.265 579.68 269.432 580.345 269.443C581.011 269.455 581.529 270.305 581.496 271.334Z" fill="#FFC7B0"/>
<path d="M584.323 272.82L583.931 279.178C583.899 280.207 583.328 281.039 582.663 281.028C581.998 281.017 581.479 280.166 581.512 279.138L581.903 272.779C581.936 271.751 582.506 270.918 583.171 270.93C583.837 270.941 584.355 271.791 584.323 272.82Z" fill="#FFC7B0"/>
<path d="M587.333 271.192L586.941 277.55C586.909 278.579 586.338 279.411 585.673 279.4C585.008 279.389 584.49 278.538 584.523 277.51L584.914 271.152C584.946 270.123 585.517 269.291 586.182 269.302C586.847 269.313 587.365 270.163 587.333 271.192Z" fill="#FFC7B0"/>
<path d="M542.492 180.496C542.492 180.496 557.165 175.625 574.266 197.11C574.266 197.11 583.997 210.787 591.164 222.832L581.796 229.276C581.796 229.276 570.898 210.352 565.068 203.939C559.237 197.527 542.492 180.496 542.492 180.496Z" fill="#D93838"/>
<path d="M579.077 225.084L589.213 218.662L592.528 223.945L582.08 230.335L579.077 225.084Z" fill="white"/>
<path d="M532.414 179.831C532.414 180.459 541.837 212.708 541.837 212.708L550.789 179.411L532.414 179.831Z" fill="#EAECEE"/>
<path opacity="0.56" d="M541.307 178.472L541.863 213.051" stroke="#4D6199" stroke-width="0.9139" stroke-miterlimit="10"/>
<path d="M544.131 185.801C544.146 186.235 543.909 186.596 543.602 186.607C543.295 186.616 543.035 186.272 543.021 185.838C543.006 185.403 543.244 185.042 543.551 185.032C543.856 185.021 544.117 185.365 544.131 185.801Z" fill="#4D6199"/>
<path d="M544.283 190.403C544.298 190.837 544.061 191.198 543.754 191.208C543.447 191.218 543.187 190.874 543.173 190.44C543.158 190.005 543.395 189.644 543.701 189.634C544.008 189.623 544.269 189.968 544.283 190.403Z" fill="#4D6199"/>
<path d="M544.436 195.005C544.45 195.44 544.213 195.801 543.906 195.811C543.6 195.822 543.34 195.477 543.325 195.042C543.31 194.607 543.547 194.247 543.854 194.236C544.16 194.226 544.421 194.57 544.436 195.005Z" fill="#4D6199"/>
<path d="M553.043 181.268L545.198 181.759C542.898 181.714 541.088 180.235 541.133 178.008L551.907 177.858C552.807 177.875 553.482 178.66 553.337 179.519L553.043 181.268Z" fill="white"/>
<path d="M529.572 181.39L537.405 182.053C539.706 182.058 541.575 180.257 541.578 178.03L541.576 177.969L530.783 178.006C529.883 178.004 529.191 178.773 529.317 179.635L529.572 181.39Z" fill="white"/>
<path d="M314.856 349.525C314.856 349.525 311.807 350.286 311.153 350.995C310.735 351.448 309.574 352.247 309.247 355.678C308.841 359.94 308.049 377.459 308.158 379.747C308.267 382.034 309.792 386.608 315.564 386.717L314.856 349.525Z" fill="#07113D"/>
<path d="M315.564 386.717L315.455 386.608C311.864 386.457 309.198 381.62 309.349 378.029L310.294 355.504C310.445 351.914 313.506 349.099 317.097 349.25C320.687 349.4 323.502 352.461 323.352 356.052L322.406 378.576C322.255 382.167 319.154 386.867 315.564 386.717Z" fill="#2C3765"/>
<path d="M316.71 370.751L316.697 370.75C314.399 370.605 313.249 369.155 312.782 366.308C312.782 366.308 312.025 358.046 313.59 353.506C314.341 351.329 315.735 349.446 318.033 349.591L318.046 349.592C320.344 349.737 322.105 351.736 321.96 354.034L321.152 366.836C321.008 369.134 319.009 370.896 316.71 370.751Z" fill="#07113D"/>
<path d="M329.177 351.757L316.435 350.123C316.435 350.123 310.337 354.806 315.564 367.875C315.564 367.875 337.781 379.638 346.494 375.281C355.207 370.925 329.177 351.757 329.177 351.757Z" fill="#090A27"/>
<path d="M304.993 457.597L291.69 457.968L292.049 470.827L305.352 470.456L304.993 457.597Z" fill="#080A2C"/>
<path d="M308.497 471.832L288.946 472.377L288.918 471.376C288.814 467.66 291.742 464.564 295.459 464.46L301.554 464.291C305.27 464.188 308.366 467.115 308.469 470.832L308.497 471.832Z" fill="#2C3765"/>
<path d="M308.713 471.635L288.538 472.198L288.626 475.36L308.801 474.797L308.713 471.635Z" fill="#07113D"/>
<path d="M307.782 297.995L307.684 301.907L306.758 452.818V452.827L306.572 460.315L306.537 461.495V461.566L290.975 462.089L289.431 462.142L282.293 373.086L279.055 303.983L278.958 301.907L278.842 299.441L278.816 298.944L304.517 298.101L306.416 298.039L307.782 297.995Z" fill="#07113D"/>
<path d="M288.434 457.824L307.178 457.578L306.808 461.893L288.804 462.387L288.434 457.824Z" fill="#061D48"/>
<path d="M338.898 287.634C338.958 291.818 337.523 295.673 335.092 298.696C331.984 302.575 327.22 305.089 321.851 305.166L292.788 305.581C291.923 305.594 291.077 305.541 290.247 305.424C288.11 305.151 286.095 304.472 284.279 303.477C283.955 303.307 283.639 303.119 283.333 302.921C278.554 299.908 275.342 294.611 275.256 288.543L275.657 279.313L338.253 277.877L338.898 287.634Z" fill="#07113D"/>
<path d="M345.745 375.715C338.441 377.535 332.622 372.132 330.659 364.257L313.435 302.674C311.472 294.799 315.843 286.865 323.147 285.045C330.452 283.224 338.034 288.179 339.997 296.054L353.312 358.457C355.274 366.331 353.05 373.894 345.745 375.715Z" fill="#07113D"/>
<path opacity="0.12" d="M294.498 293.095C289.074 293.044 284.683 297.489 284.809 302.912C285.264 322.55 286.304 380.869 289 384.225C292.522 388.609 300.88 386.751 302.07 384.019C302.988 381.912 303.796 322.501 304.005 302.793C304.061 297.488 300.528 293.362 295.222 293.312L294.498 293.095Z" fill="#4D6199"/>
<path d="M319.212 350.517C319.212 350.517 317.619 351.728 317.301 357.48C316.982 363.231 318.894 369.891 318.894 369.891L314.638 367.93C314.638 367.93 312.517 362.25 313.495 355.841C314.23 351.022 316.999 349.87 317.129 349.919C317.14 349.922 317.15 349.926 317.162 349.928L319.212 350.517Z" fill="#061D48"/>
<path opacity="0.12" d="M321.336 298.5C321.336 299.807 340.939 370.707 346.821 371.034C352.702 371.36 352.701 365.153 352.701 364.172C352.701 363.192 337.672 291.312 336.365 290.986C335.058 290.659 321.336 280.857 321.336 298.5Z" fill="#4D6199"/>
<path d="M317.693 150.642H299.892C290.465 150.642 282.823 143 282.823 133.573V112.861C282.823 101.01 292.43 91.4026 304.281 91.4026H313.304C325.155 91.4026 334.762 101.01 334.762 112.861V133.573C334.762 143 327.12 150.642 317.693 150.642Z" fill="#EAA64F"/>
<path d="M289.715 122.229L289.364 128.29L289.123 132.382L287.295 132.301C287.162 132.293 287.029 132.286 286.903 132.264C283.857 131.941 281.563 129.494 281.713 126.806C281.788 125.41 282.522 124.249 283.64 123.368C284.642 122.582 285.96 122.163 287.395 122.149H287.403C287.57 122.134 287.712 122.134 287.879 122.149L289.715 122.229Z" fill="#F4A891"/>
<path d="M329.543 122.368L329.894 128.429L330.135 132.521L331.963 132.44C332.096 132.432 332.229 132.425 332.355 132.403C335.401 132.08 337.695 129.633 337.545 126.945C337.47 125.549 336.736 124.388 335.618 123.507C334.617 122.721 333.298 122.302 331.863 122.288H331.855C331.688 122.273 331.546 122.273 331.379 122.288L329.543 122.368Z" fill="#F4A891"/>
<path d="M312.096 172.376H304.561C300.925 172.376 297.95 169.401 297.95 165.765V144.182C297.95 140.546 300.925 137.571 304.561 137.571H312.095C315.731 137.571 318.707 140.546 318.707 144.182V165.765C318.707 169.401 315.733 172.376 312.096 172.376Z" fill="#F4A891"/>
<path d="M333.051 121.39L332.484 132.478L332.4 134.138C332.35 135.231 332.208 136.316 332.008 137.359C330.297 146.17 323.548 153.137 314.954 155.348C313.994 155.597 313.01 155.782 312.008 155.907C311.708 155.957 311.399 155.981 311.099 155.998C310.465 156.065 309.831 156.098 309.189 156.098C308.73 156.098 308.271 156.082 307.804 156.065C306.753 156.007 305.735 155.881 304.725 155.69C304.308 155.615 303.899 155.523 303.49 155.423C301.93 155.056 300.445 154.521 299.035 153.854C299.035 153.854 299.026 153.854 299.018 153.846C292.259 150.65 287.337 144.359 285.993 136.958C285.985 136.933 285.985 136.917 285.985 136.891C285.852 136.09 285.751 135.281 285.692 134.463C285.667 134.204 285.659 133.954 285.651 133.696C285.643 133.429 285.635 133.17 285.643 132.903C285.626 132.594 285.643 132.277 285.66 131.959V131.793L285.693 131.034L285.801 129.056L285.968 125.668V125.636L286.135 122.214L286.143 122.147V122.139L286.21 120.879L286.26 119.895L286.311 118.993L286.327 118.76C286.419 117.191 286.736 115.673 287.195 114.221C287.504 113.203 287.888 112.21 288.313 111.259C288.371 111.1 288.43 110.967 288.497 110.825C288.847 110.04 289.256 109.265 289.698 108.531C289.698 108.523 289.707 108.513 289.707 108.513C291.384 105.71 293.645 103.282 296.315 101.405C296.849 101.03 297.399 100.67 297.959 100.337C301.855 98.0503 306.428 96.8243 311.25 97.0748C317.7 97.409 323.482 100.304 327.512 104.726C328.697 106.028 329.664 107.446 330.457 108.981C331.116 110.224 331.659 111.534 332.126 112.919C332.427 113.787 332.643 114.68 332.802 115.581C332.802 115.581 332.802 115.589 332.802 115.597C332.852 115.906 332.894 116.206 332.927 116.515C332.994 117.057 333.044 117.608 333.069 118.167C333.118 119.22 333.109 120.297 333.051 121.39Z" fill="#FFC7B0"/>
<path d="M318.301 128.532H318.031C317.531 128.532 317.123 128.124 317.123 127.624V124.017C317.123 123.517 317.531 123.109 318.031 123.109H318.301C318.801 123.109 319.209 123.517 319.209 124.017V127.624C319.209 128.123 318.801 128.532 318.301 128.532Z" fill="#07113D"/>
<path d="M300.084 128.462H299.814C299.314 128.462 298.906 128.053 298.906 127.554V123.947C298.906 123.447 299.314 123.039 299.814 123.039H300.084C300.584 123.039 300.992 123.447 300.992 123.947V127.554C300.992 128.054 300.583 128.462 300.084 128.462Z" fill="#07113D"/>
<path d="M322.098 120.105H314.018C313.486 120.105 313.052 119.67 313.052 119.139V118.851C313.052 118.319 313.486 117.885 314.018 117.885H322.098C322.63 117.885 323.065 118.319 323.065 118.851V119.139C323.064 119.67 322.629 120.105 322.098 120.105Z" fill="#EAA64F"/>
<path d="M304.159 120.105H296.079C295.547 120.105 295.113 119.67 295.113 119.139V118.851C295.113 118.319 295.547 117.885 296.079 117.885H304.159C304.691 117.885 305.126 118.319 305.126 118.851V119.139C305.126 119.67 304.691 120.105 304.159 120.105Z" fill="#EAA64F"/>
<path d="M306.463 131.939H311.469C311.469 131.939 309.105 135.277 306.463 131.939Z" fill="#E48867"/>
<path d="M333.051 121.39L332.484 132.478L332.4 134.138C332.35 135.231 332.208 136.316 332.008 137.359C330.297 146.17 323.548 153.137 314.954 155.348C313.994 155.597 313.01 155.782 312.008 155.907C311.708 155.957 311.399 155.981 311.099 155.998C310.465 156.065 309.831 156.098 309.189 156.098C308.73 156.098 308.271 156.082 307.804 156.065C306.61 156.015 305.442 155.881 304.291 155.681C304.057 155.639 303.832 155.606 303.598 155.556C302.021 155.189 300.527 154.655 299.109 153.988C299.109 153.988 299.101 153.988 299.093 153.979C292.284 150.759 287.32 144.426 285.993 136.958C285.985 136.933 285.985 136.916 285.985 136.891C285.843 136.09 285.743 135.281 285.692 134.463C285.667 134.204 285.659 133.954 285.651 133.696C285.643 133.429 285.635 133.17 285.643 132.903C285.626 132.594 285.643 132.277 285.66 131.959V131.793L285.693 131.034L285.801 129.056L285.968 125.668C287.011 138.076 291.4 153.753 306.869 154.387C328.287 155.263 332.734 131.717 333.067 118.168C333.118 119.22 333.109 120.297 333.051 121.39Z" fill="#F4A891"/>
<path d="M290.59 109.843L287.899 127.72C287.774 128.549 286.839 128.977 286.131 128.529C285.815 128.33 285.615 127.991 285.592 127.619L284.784 114.593C284.784 114.593 289.112 103.825 290.59 109.843Z" fill="#EAA64F"/>
<path d="M327.752 112.165L330.443 130.043C330.568 130.872 331.503 131.299 332.212 130.851C332.527 130.653 332.728 130.314 332.751 129.942L333.559 113.326C333.559 113.326 329.23 106.147 327.752 112.165Z" fill="#EAA64F"/>
<path d="M287.395 122.148L298.437 105.62C298.437 105.62 325.183 107.309 329.687 122.23L333.347 112.095C333.347 112.095 325.183 89.573 304.35 94.9221C283.517 100.271 287.395 122.148 287.395 122.148Z" fill="#EAA64F"/>
<path d="M319.271 93.7952C319.271 93.7952 338.696 103.93 338.696 104.775C338.696 105.619 332.503 110.687 326.028 107.59C319.552 104.494 319.271 93.7952 319.271 93.7952Z" fill="#EAA64F"/>
<path d="M318.708 98.8632C318.708 98.8632 338.133 108.998 338.133 109.843C338.133 110.687 331.94 115.755 325.464 112.658C318.99 109.561 318.708 98.8632 318.708 98.8632Z" fill="#EAA64F"/>
<path d="M314.369 138.794C313.12 140.089 311.184 140.845 309.051 140.735C307.262 140.643 305.673 139.962 304.552 138.909" stroke="#E48867" stroke-width="1.2104" stroke-miterlimit="10"/>
<path opacity="0.45" d="M316.592 122.914L320.698 130.961L323.818 130.633L319.549 122.914H316.592Z" fill="white"/>
<path opacity="0.45" d="M295.931 122.914L300.037 130.961L303.157 130.633L298.887 122.914H295.931Z" fill="white"/>
<path d="M305.353 126.501L307.575 125.867C308.563 125.584 309.615 125.613 310.587 125.95L312.567 126.635" stroke="#2B396D" stroke-width="2.2976" stroke-miterlimit="10"/>
<path d="M401.992 104.627C401.845 104.672 392.069 103.578 391.573 105.409C390.745 108.458 390.272 112.043 390.272 115.319L390.271 121.593C390.271 121.593 398.904 122.133 399.354 122.177C405.606 122.796 404.096 110.355 404.096 110.355C404.096 110.355 405.285 103.629 401.992 104.627Z" fill="#F4A891"/>
<path d="M395.283 110.146L395.575 95.1978C395.593 94.2795 394.856 93.5126 393.937 93.4952L393.441 93.4854C392.522 93.4673 391.756 94.2048 391.738 95.1231L391.446 110.071C391.428 110.989 392.165 111.756 393.084 111.773L393.581 111.783C394.499 111.801 395.265 111.065 395.283 110.146Z" fill="#F4A891"/>
<path d="M399.881 107.152L400.117 95.0519C400.135 94.1337 399.398 93.3668 398.479 93.3494L397.982 93.3396C397.063 93.3214 396.297 94.0583 396.28 94.9773L396.044 107.077C396.026 107.996 396.763 108.763 397.682 108.78L398.179 108.79C399.097 108.808 399.863 108.07 399.881 107.152Z" fill="#F4A891"/>
<path d="M404.298 112.824L404.576 98.5931C404.594 97.6749 403.857 96.908 402.938 96.8906L402.441 96.8808C401.523 96.8627 400.756 97.5995 400.739 98.5185L400.461 112.749C400.443 113.667 401.18 114.434 402.099 114.452L402.596 114.461C403.514 114.479 404.28 113.742 404.298 112.824Z" fill="#F4A891"/>
<path d="M394.104 119.282L389.532 105.048C389.25 104.173 388.305 103.687 387.43 103.968L386.957 104.12C386.078 104.402 385.595 105.343 385.877 106.222L390.45 120.456C390.731 121.331 391.677 121.817 392.552 121.535L393.025 121.383C393.9 121.102 394.385 120.157 394.104 119.282Z" fill="#F4A891"/>
<path d="M404.013 125.298L400.597 125.232L387.975 124.987L388.043 121.434L388.097 118.999L389.998 119.035L390.274 119.04L394.05 119.118L403.395 119.292L404.135 119.309L404.089 121.65L404.042 123.904L404.013 125.298Z" fill="#EAECEE"/>
<path d="M405.471 124.125C405.252 125.529 399.959 158.66 379.632 173.828C367.971 182.53 349.391 186.62 337.754 188.43C336.175 188.671 334.718 188.878 333.429 189.048C330.407 189.437 328.28 189.624 327.499 189.689L326.712 180.085L325.925 170.48L325.933 170.481C326.419 170.443 326.958 170.392 327.54 170.329C336.806 169.376 358.107 165.845 368.104 158.386C379.701 149.731 385.265 128.592 386.427 121.181L388.043 121.435L401.037 123.443L404.041 123.906L405.471 124.125Z" fill="#061F48"/>
<path d="M240.776 70.5655C240.896 70.6695 250.513 73.7544 250.208 75.6788C249.702 78.883 248.638 82.4403 247.261 85.5091L244.624 91.3865C244.624 91.3865 236.309 88.2633 235.87 88.116C229.753 86.0673 236.397 75.0466 236.397 75.0466C236.397 75.0466 238.111 68.2461 240.776 70.5655Z" fill="#F4A891"/>
<path d="M244.741 78.5565L250.752 64.4307C251.121 63.5626 252.134 63.1544 253.002 63.5242L253.472 63.7238C254.34 64.0929 254.748 65.1054 254.378 65.9741L248.368 80.1C247.999 80.968 246.986 81.3762 246.118 81.0064L245.648 80.8068C244.78 80.437 244.372 79.4245 244.741 78.5565Z" fill="#F4A891"/>
<path d="M241.693 73.8186L246.558 62.3841C246.927 61.516 247.94 61.1078 248.809 61.4777L249.278 61.6772C250.146 62.0463 250.554 63.0588 250.185 63.9276L245.319 75.362C244.95 76.2301 243.937 76.6383 243.069 76.2685L242.599 76.0689C241.732 75.6998 241.324 74.6873 241.693 73.8186Z" fill="#F4A891"/>
<path d="M235.171 77.2746L240.894 63.8271C241.263 62.959 242.275 62.5508 243.143 62.9207L243.613 63.1202C244.481 63.4893 244.889 64.5018 244.52 65.3706L238.797 78.8181C238.428 79.6862 237.415 80.0944 236.547 79.7245L236.078 79.525C235.21 79.1552 234.802 78.1427 235.171 77.2746Z" fill="#F4A891"/>
<path d="M242.005 87.6101L252.273 76.198C252.904 75.4967 253.994 75.4388 254.696 76.0703L255.075 76.4115C255.779 77.0451 255.837 78.1294 255.203 78.8342L244.935 90.2463C244.304 90.9476 243.214 91.0055 242.512 90.374L242.133 90.0328C241.432 89.402 241.374 88.3121 242.005 87.6101Z" fill="#F4A891"/>
<path d="M247.754 89.8765L247.006 91.6335L245.341 95.5292L232.819 90.1996L230.196 89.0782L230.516 88.3295L231.212 86.68L232.601 83.4249L233.3 83.7235L242.125 87.4831L245.698 89.0008L245.956 89.1083L247.754 89.8765Z" fill="#EAECEE"/>
<path d="M289.992 169.601L282.431 186.197L281.789 187.609C281.581 187.515 278.741 186.212 274.511 183.9C270.899 181.922 266.262 179.205 261.374 175.865C246.41 165.637 236.563 154.805 232.093 143.665C222.803 120.512 228.898 89.3678 229.161 88.0539L230.517 88.3295L233.01 88.8278L243.277 90.8869L244.718 91.1688L247.007 91.6328L248.559 91.9412C248.512 92.1959 243.388 118.663 250.461 136.299C255.853 149.738 275.264 162.064 286 167.643C287.528 168.433 288.879 169.095 289.992 169.601Z" fill="#061F48"/>
<path d="M276.984 293.93C276.984 293.93 300.878 293.309 300.663 292.43C300.448 291.551 301.269 281.564 301.269 281.564C301.269 281.564 320.359 279.974 320.265 281.115C320.171 282.257 321.156 291.243 321.156 291.243L335.349 289.825L336.284 274.964L274.991 276.243L276.984 293.93Z" fill="#080B2E"/>
<path d="M321.797 162.623L296.46 162.749L297.013 273.442L322.35 273.315L321.797 162.623Z" fill="#EAECEE"/>
<path d="M309.527 175.044L303.118 166.014L308.963 162.477L315.846 165.95L309.527 175.044Z" fill="#D93838"/>
<path d="M321.65 168.658L309.395 162.941L296.346 169.187L296.303 160.598L321.534 160.893L321.65 168.658Z" fill="white"/>
<path d="M323.771 273.125L296.84 273.254L296.866 278.677L323.797 278.548L323.771 273.125Z" fill="#9995A7"/>
<path d="M315.761 273.107L306.528 273.153L306.556 278.736L315.789 278.69L315.761 273.107Z" fill="#061D48"/>
<path d="M296.994 289.008C296.994 289.008 291.489 290.348 283.295 290.536C280.315 290.61 276.978 290.534 273.422 290.181C273.208 290.163 273.009 290.069 272.817 289.993L273.289 213.841C272.816 201.048 273.814 194.365 274.51 183.9C274.603 182.46 274.692 180.95 274.772 179.346C274.816 178.392 274.992 177.511 275.276 176.681C276.754 172.329 281.212 169.577 285.999 167.644C288.878 166.484 291.879 165.62 294.412 164.897C295.595 164.555 294.871 164.867 296.118 164.796L296.994 289.008Z" fill="#061F48"/>
<path d="M338.957 287.824L334.247 287.875L323.431 287.985C323.431 287.985 320.853 166.132 321.924 166.634C323.741 167.49 325.672 168.744 327.54 170.327C331.376 173.564 334.951 178.193 336.72 183.613C337.231 185.155 337.59 186.77 337.754 188.43C337.766 188.491 337.778 188.561 337.782 188.622C338.799 199.098 338.957 287.824 338.957 287.824Z" fill="#061F48"/>
<path d="M273.422 290.181C273.208 290.164 273.009 290.07 272.817 289.994L273.289 213.842C272.816 201.049 273.814 194.365 274.51 183.901C270.898 181.923 266.261 179.206 261.374 175.866C246.41 165.638 236.563 154.805 232.093 143.665C222.802 120.512 228.897 89.3685 229.16 88.0546L230.516 88.3302L233.009 88.8284C233.009 88.8284 232.897 89.6721 232.818 90.2003C231.59 99.6824 228.693 130.408 244.515 149.066C256.056 162.674 267.976 171.773 275.276 176.682C279.662 179.62 282.389 181.05 282.389 181.05L282.43 186.198C282.431 186.197 276.978 290.534 273.422 290.181Z" fill="#07113D"/>
<path d="M405.471 124.125C405.252 125.529 399.959 158.66 379.632 173.828C367.971 182.53 349.391 186.62 337.755 188.43C337.766 188.491 337.778 188.561 337.782 188.622C338.799 199.099 338.956 287.824 338.956 287.824L333.429 189.049L333.391 184.384C333.391 184.384 334.627 184.123 336.72 183.615C346.27 181.289 373.765 173.795 383.901 162.253C393.789 151.01 398.738 132.742 400.596 125.234C400.765 124.541 401.037 123.442 401.037 123.442L404.041 123.905L405.471 124.125Z" fill="#07113D"/>
<path d="M309.555 172.942L311.268 272.62" stroke="#9995A7" stroke-width="1.2309" stroke-miterlimit="10"/>
<path d="M296.691 225.171C297.117 226.234 287.186 187.333 287.186 187.333L291.795 183.403L285.831 165.389L296.128 164.62C296.128 164.62 295.976 223.389 296.691 225.171Z" fill="#2C3765"/>
<path d="M322.29 226.825C321.887 227.897 330.721 188.902 330.721 188.902L326.259 184.959L332.078 168.905L321.504 166.492C321.504 166.492 322.965 225.027 322.29 226.825Z" fill="#2C3765"/>
<path opacity="0.34" d="M308.829 172.164C308.915 173.523 308.27 204.291 315.386 222.544C322.503 240.795 328.641 244.748 328.641 244.748L338.823 244.077L339.597 234.661C339.597 234.661 322.41 220.967 318.923 210.986C315.435 201.004 311.212 171.14 311.212 171.14C311.212 171.14 308.582 168.194 308.829 172.164Z" fill="#9995A7"/>
<path d="M311.522 170.788C311.522 170.788 313.217 199.079 326.428 213.092C339.638 227.106 344.536 226.934 344.536 226.934L346.712 238.89L333.208 238.929C333.208 238.929 317.953 225.322 313.92 211.489C309.886 197.656 308.028 171.362 308.028 171.362L311.522 170.788Z" fill="#D93838"/>
<path d="M400.771 297.731C400.882 297.618 410.236 293.743 409.773 291.846C409.003 288.687 407.648 285.22 406.019 282.267L402.901 276.612C402.901 276.612 394.851 280.417 394.424 280.6C388.481 283.15 396.027 293.614 396.027 293.614C396.027 293.614 398.298 300.268 400.771 297.731Z" fill="#F4A891"/>
<path d="M404.075 289.421L411.243 303.04C411.683 303.877 412.729 304.201 413.566 303.761L414.019 303.522C414.855 303.082 415.18 302.037 414.74 301.199L407.571 287.581C407.131 286.744 406.086 286.42 405.248 286.86L404.796 287.099C403.958 287.54 403.634 288.585 404.075 289.421Z" fill="#F4A891"/>
<path d="M401.418 294.406L407.221 305.429C407.661 306.266 408.707 306.59 409.544 306.15L409.997 305.911C410.833 305.471 411.158 304.426 410.718 303.588L404.915 292.565C404.475 291.728 403.429 291.404 402.592 291.844L402.139 292.083C401.302 292.524 400.978 293.569 401.418 294.406Z" fill="#F4A891"/>
<path d="M394.618 291.49L401.443 304.454C401.883 305.291 402.928 305.615 403.766 305.175L404.218 304.937C405.055 304.496 405.38 303.451 404.939 302.614L398.115 289.649C397.675 288.812 396.629 288.488 395.792 288.928L395.339 289.167C394.502 289.608 394.177 290.653 394.618 291.49Z" fill="#F4A891"/>
<path d="M400.595 280.601L411.793 291.157C412.481 291.806 413.575 291.774 414.224 291.086L414.575 290.713C415.227 290.022 415.195 288.934 414.504 288.282L403.306 277.725C402.618 277.076 401.523 277.108 400.875 277.797L400.524 278.17C399.875 278.858 399.907 279.952 400.595 280.601Z" fill="#F4A891"/>
<path d="M388.673 280.105L391.785 278.465L403.283 272.412L404.989 275.648L406.151 277.869L404.419 278.782L404.168 278.914L400.725 280.722L392.216 285.21L391.54 285.562L390.419 283.43L389.34 281.375L388.673 280.105Z" fill="#EAECEE"/>
<path d="M389.345 281.375L392.272 280.294L398.668 277.958L404.989 275.645C404.989 275.645 397.625 246.041 403.77 232.482C406.245 227.041 412.93 219.426 419.402 212.829C420.433 211.786 421.437 210.768 422.43 209.801C428.713 203.606 434.117 198.894 434.305 198.768L431.114 192.297L426.552 180.359V180.347C425.886 180.786 394.094 210.706 388.414 222.857C377.357 246.517 389.345 281.375 389.345 281.375Z" fill="#591239"/>
<path d="M467.633 131.758L468.323 149.091C468.356 149.914 469.107 150.518 469.918 150.373C470.557 150.259 471.025 149.71 471.037 149.061L471.298 134.389L467.633 131.758Z" fill="#8C8997"/>
<path d="M473.219 130.247V144.866C473.219 145.049 473.219 145.231 473.204 145.414C473.052 150.954 470.426 155.886 466.408 159.143C464.673 160.551 462.679 161.646 460.502 162.347C460.008 162.514 459.505 162.651 458.988 162.766C457.656 163.078 456.271 163.237 454.848 163.237H443.432C441.438 163.237 439.513 162.918 437.717 162.332C436.986 162.096 436.278 161.814 435.594 161.487C434.147 160.809 432.808 159.949 431.606 158.938C431.606 158.93 431.598 158.922 431.598 158.922C431.568 158.899 431.53 158.869 431.499 158.839C427.558 155.467 425.053 150.46 425.054 144.866V130.247C425.054 127.956 425.389 125.742 426.02 123.649C428.851 114.105 437.687 107.15 448.151 107.15H450.122C461.774 107.15 471.408 115.772 472.984 126.99C473.143 128.055 473.219 129.144 473.219 130.247Z" fill="#591239"/>
<path d="M431.647 137.638L431.331 143.099L431.113 146.786L429.466 146.713C429.346 146.706 429.225 146.7 429.113 146.68C426.369 146.389 424.301 144.185 424.436 141.762C424.504 140.504 425.166 139.458 426.173 138.664C427.075 137.955 428.263 137.578 429.556 137.565H429.564C429.714 137.552 429.841 137.552 429.992 137.565L431.647 137.638Z" fill="#F4A891"/>
<path d="M467.534 137.763L467.85 143.224L468.068 146.911L469.714 146.838C469.835 146.831 469.955 146.825 470.068 146.805C472.812 146.514 474.879 144.309 474.744 141.887C474.676 140.629 474.015 139.583 473.007 138.789C472.105 138.08 470.917 137.703 469.624 137.69H469.617C469.466 137.677 469.339 137.677 469.188 137.69L467.534 137.763Z" fill="#F4A891"/>
<path d="M471.005 139.771C471.005 139.771 472.891 140.151 472.812 142.054C472.717 144.337 470.529 144.623 470.529 144.623L471.005 139.771Z" fill="#D79685"/>
<path d="M428.009 144.623C428.009 144.623 426.122 144.243 426.202 142.34C426.297 140.056 427.817 140.056 427.817 140.056L428.009 144.623Z" fill="#D79685"/>
<path d="M452.766 181.548H443.942C440.52 181.548 437.719 178.748 437.719 175.326V157.684C437.719 154.262 440.52 151.462 443.942 151.462H452.766C456.188 151.462 458.988 154.262 458.988 157.684V175.325C458.988 178.748 456.188 181.548 452.766 181.548Z" fill="#F4A891"/>
<path d="M470.696 136.882L470.184 146.873L470.109 148.369C470.063 149.354 469.936 150.332 469.756 151.271C468.214 159.21 462.132 165.488 454.389 167.48C453.524 167.705 452.637 167.871 451.735 167.984C451.464 168.029 451.186 168.051 450.916 168.066C450.344 168.126 449.773 168.156 449.194 168.156C448.781 168.156 448.367 168.141 447.946 168.126C446.999 168.074 446.082 167.961 445.172 167.788C444.796 167.72 444.427 167.638 444.059 167.547C442.653 167.216 441.315 166.735 440.044 166.134C440.044 166.134 440.037 166.134 440.029 166.126C433.939 163.246 429.504 157.578 428.293 150.91C428.285 150.887 428.285 150.872 428.285 150.85C428.165 150.128 428.075 149.398 428.022 148.662C428 148.429 427.992 148.204 427.985 147.971C427.977 147.73 427.969 147.497 427.977 147.257C427.962 146.978 427.977 146.693 427.992 146.407V146.257L428.022 145.572L428.12 143.79L428.271 140.738V140.708L428.421 137.625L428.428 137.565V137.558L428.488 136.422L428.534 135.535L428.579 134.723L428.595 134.513C428.677 133.1 428.963 131.731 429.377 130.423C429.654 129.505 430.001 128.611 430.384 127.754C430.437 127.611 430.489 127.491 430.55 127.363C430.865 126.656 431.234 125.957 431.633 125.296C431.633 125.288 431.64 125.28 431.64 125.28C433.15 122.754 435.188 120.567 437.594 118.875C438.075 118.537 438.571 118.213 439.075 117.913C442.586 115.853 446.706 114.748 451.051 114.973C456.863 115.274 462.073 117.883 465.704 121.868C466.772 123.04 467.644 124.319 468.358 125.702C468.952 126.822 469.441 128.002 469.862 129.251C470.133 130.033 470.328 130.837 470.471 131.649C470.471 131.649 470.471 131.657 470.471 131.664C470.516 131.943 470.553 132.213 470.583 132.491C470.643 132.98 470.689 133.476 470.711 133.98C470.756 134.927 470.748 135.897 470.696 136.882Z" fill="#FFC7B0"/>
<path d="M460.66 135.725H453.711C453.141 135.725 452.675 135.259 452.675 134.688V134.38C452.675 133.81 453.141 133.344 453.711 133.344H460.66C461.23 133.344 461.696 133.81 461.696 134.38V134.688C461.696 135.258 461.23 135.725 460.66 135.725Z" fill="#591239"/>
<path d="M444.496 135.725H437.547C436.977 135.725 436.511 135.259 436.511 134.688V134.38C436.511 133.81 436.977 133.344 437.547 133.344H444.496C445.066 133.344 445.532 133.81 445.532 134.38V134.688C445.532 135.258 445.066 135.725 444.496 135.725Z" fill="#591239"/>
<path d="M470.696 136.882L470.184 146.873L470.109 148.369C470.063 149.354 469.936 150.332 469.756 151.271C468.214 159.21 462.132 165.488 454.389 167.48C453.524 167.705 452.637 167.871 451.735 167.984C451.464 168.029 451.186 168.051 450.916 168.066C450.344 168.126 449.773 168.156 449.194 168.156C448.781 168.156 448.367 168.141 447.946 168.126C446.871 168.081 445.818 167.961 444.781 167.78C444.571 167.742 444.368 167.712 444.157 167.668C442.736 167.337 441.39 166.855 440.112 166.254C440.112 166.254 440.104 166.254 440.097 166.247C433.962 163.345 429.488 157.638 428.293 150.91C428.285 150.887 428.285 150.872 428.285 150.85C428.158 150.128 428.068 149.398 428.022 148.662C428 148.429 427.992 148.204 427.985 147.971C427.977 147.73 427.969 147.497 427.977 147.257C427.962 146.978 427.977 146.693 427.992 146.407V146.257L428.022 145.572L428.12 143.79L428.271 140.738C429.211 151.918 433.165 166.045 447.104 166.616C466.403 167.405 470.41 146.189 470.71 133.98C470.756 134.927 470.748 135.897 470.696 136.882Z" fill="#F4A891"/>
<path d="M443.292 125.086L454.678 128.61C456.472 129.166 458.122 127.417 457.462 125.658L457.389 125.462L458.761 126.193C462.781 128.335 466.035 131.673 468.074 135.746L470.673 140.936C470.673 140.936 476.812 114.623 447.991 113.997C424.99 113.496 427.88 136.551 427.88 136.551C427.88 136.551 432.954 123.582 443.292 125.086Z" fill="#591239"/>
<path opacity="0.63" d="M456.104 138.345C456.104 138.543 458.597 143.038 458.597 143.038L460.515 142.906L458.213 138.543C458.213 138.543 459.172 138.279 459.3 138.543C459.428 138.807 461.666 142.839 461.666 142.839C461.666 142.839 463.008 143.236 462.816 142.112C462.624 140.989 461.282 138.609 460.898 138.543C460.516 138.477 456.104 138.345 456.104 138.345Z" fill="#F4A891"/>
<path d="M461.668 143.037H453.353C452.264 143.037 451.373 142.146 451.373 141.057V140.391C451.373 139.302 452.264 138.411 453.353 138.411H461.668C462.757 138.411 463.648 139.302 463.648 140.391V141.057C463.648 142.146 462.757 143.037 461.668 143.037Z" stroke="#F4A891" stroke-width="1.118" stroke-miterlimit="10"/>
<path opacity="0.63" d="M438.906 138.345C438.906 138.543 441.399 143.038 441.399 143.038L443.317 142.906L441.016 138.543C441.016 138.543 441.974 138.279 442.103 138.543C442.23 138.807 444.532 142.839 444.532 142.839C444.532 142.839 445.62 143.17 445.428 142.046C445.236 140.922 444.085 138.609 443.701 138.542C443.317 138.477 438.906 138.345 438.906 138.345Z" fill="#F4A891"/>
<path d="M444.469 143.037H436.155C435.066 143.037 434.175 142.146 434.175 141.057V140.391C434.175 139.302 435.066 138.411 436.155 138.411H444.469C445.558 138.411 446.449 139.302 446.449 140.391V141.057C446.45 142.146 445.558 143.037 444.469 143.037Z" stroke="#F4A891" stroke-width="1.118" stroke-miterlimit="10"/>
<path d="M446.45 140.724C446.45 140.724 449.263 139.204 451.309 140.922" stroke="#F4A891" stroke-width="1.118" stroke-miterlimit="10"/>
<path d="M431.49 125.341L430.8 142.675C430.767 143.497 430.015 144.102 429.205 143.956C428.567 143.843 428.098 143.293 428.087 142.645L427.824 127.972L431.49 125.341Z" fill="#591239"/>
<path d="M471.571 126.356L470.881 143.689C470.848 144.512 470.096 145.116 469.286 144.971C468.648 144.857 468.18 144.307 468.168 143.659L467.906 128.987L471.571 126.356Z" fill="#591239"/>
<path d="M442.24 140.437H438.254C437.92 140.437 437.647 140.164 437.647 139.83V139.65C437.647 139.315 437.92 139.043 438.254 139.043H442.24C442.574 139.043 442.847 139.316 442.847 139.65V139.83C442.847 140.164 442.574 140.437 442.24 140.437Z" fill="#07113D"/>
<path d="M459.68 140.437H455.694C455.36 140.437 455.087 140.164 455.087 139.83V139.65C455.087 139.315 455.361 139.043 455.694 139.043H459.68C460.014 139.043 460.287 139.316 460.287 139.65V139.83C460.287 140.164 460.014 140.437 459.68 140.437Z" fill="#07113D"/>
<path opacity="0.63" d="M456.038 137.711C456.038 137.901 458.511 142.213 458.511 142.213L460.414 142.086L458.131 137.9C458.131 137.9 459.082 137.646 459.209 137.9C459.336 138.154 461.556 142.023 461.556 142.023C461.556 142.023 462.888 142.403 462.697 141.325C462.507 140.247 461.175 137.964 460.794 137.9C460.414 137.837 456.038 137.711 456.038 137.711Z" fill="white"/>
<path d="M461.589 142.213H453.277C452.214 142.213 451.345 141.344 451.345 140.281V139.706C451.345 138.644 452.214 137.774 453.277 137.774H461.589C462.652 137.774 463.521 138.644 463.521 139.706V140.281C463.521 141.344 462.652 142.213 461.589 142.213Z" stroke="#07113D" stroke-width="1.0906" stroke-miterlimit="10"/>
<path opacity="0.63" d="M438.978 137.711C438.978 137.901 441.452 142.213 441.452 142.213L443.355 142.086L441.072 137.9C441.072 137.9 442.023 137.647 442.15 137.9C442.277 138.154 444.56 142.023 444.56 142.023C444.56 142.023 445.638 142.34 445.447 141.262C445.257 140.183 444.115 137.964 443.735 137.9C443.354 137.837 438.978 137.711 438.978 137.711Z" fill="white"/>
<path d="M444.53 142.213H436.218C435.155 142.213 434.286 141.344 434.286 140.281V139.706C434.286 138.644 435.155 137.774 436.218 137.774H444.53C445.592 137.774 446.462 138.644 446.462 139.706V140.281C446.462 141.344 445.592 142.213 444.53 142.213Z" stroke="#07113D" stroke-width="1.0906" stroke-miterlimit="10"/>
<path d="M446.462 139.994C446.462 139.994 449.252 138.535 451.281 140.184" stroke="#07113D" stroke-width="1.0906" stroke-miterlimit="10"/>
<path d="M443.196 152.963H454.357C454.357 152.963 452.581 156.641 448.903 156.641C445.225 156.641 443.196 152.963 443.196 152.963Z" fill="#EAECEE"/>
<path d="M450.666 148.396H446.823C446.52 148.396 446.271 148.148 446.271 147.844V147.68C446.271 147.376 446.52 147.128 446.823 147.128H450.666C450.969 147.128 451.218 147.376 451.218 147.68V147.844C451.218 148.148 450.969 148.396 450.666 148.396Z" fill="#F4A891"/>
<path d="M472.984 126.99C471.759 125.323 469.658 123.588 467.299 122.043C466.104 121.252 464.841 120.514 463.585 119.852C460.207 118.063 456.88 116.838 455.115 116.754C451.127 116.557 455.115 120.559 454.735 122.645C454.355 124.745 445.511 120.08 439.073 117.911C437.482 117.379 435.869 117.47 434.339 117.926C430.313 119.091 426.881 122.69 426.021 123.65C428.852 114.106 437.688 107.151 448.152 107.151H450.123C461.774 107.15 471.409 115.772 472.984 126.99Z" fill="#65324E"/>
<path d="M465.491 404.641L465.356 404.534C460.937 404.349 457.603 399.648 457.748 396.183L458.66 374.444C458.806 370.978 462.541 368.295 466.96 368.48C471.379 368.666 474.875 371.653 474.73 375.118L473.818 396.857C473.672 400.323 469.91 404.826 465.491 404.641Z" fill="#2C3765"/>
<path d="M442.522 456.587L430.341 456.537L430.293 468.312L442.474 468.362L442.522 456.587Z" fill="#080A2C"/>
<path d="M445.319 469.696L427.416 469.623L427.42 468.706C427.433 465.303 430.203 462.556 433.606 462.57L439.187 462.593C442.589 462.607 445.336 465.377 445.322 468.78L445.319 469.696Z" fill="#2C3765"/>
<path d="M445.307 469.16L427.32 469.662L427.399 472.481L445.385 471.979L445.307 469.16Z" fill="#07113D"/>
<path d="M423.226 310.663C423.226 310.663 423.226 310.663 423.226 310.674L423.236 311.112V311.465L423.268 313.378L423.29 315.28L424.231 378.593L427.971 456.301L428.164 460.276L429.575 460.265H430.323L442.507 460.244H443.821L443.832 460.18L443.896 459.1L444.035 456.599L444.281 452.26V452.249L449.272 321.477L449.549 314.21L449.688 311.827L449.753 310.64H445.382L439.076 310.651H429.5L425.364 310.662H423.226V310.663Z" fill="#07113D"/>
<path d="M427.374 456.293L444.528 456.616L444.064 460.553L427.578 460.478L427.374 456.293Z" fill="#061D48"/>
<path d="M478.23 305.196C478.208 306.393 478.059 307.558 477.77 308.68C477.716 308.926 477.652 309.162 477.577 309.407C477.577 309.407 477.577 309.407 477.577 309.418C477.502 309.674 477.417 309.931 477.32 310.187C476.327 312.977 474.542 315.382 472.244 317.145C471.848 317.465 471.442 317.744 471.026 318.011C470.758 318.192 470.47 318.353 470.181 318.512C468.567 319.399 466.772 319.998 464.87 320.244C464.122 320.35 463.374 320.393 462.604 320.383L454.931 320.276L451.532 320.223L445.921 320.137L437.532 320.02L436.687 320.009C431.899 319.944 427.657 317.7 424.889 314.248C424.312 313.521 423.788 312.752 423.339 311.929C423.104 311.491 422.89 311.032 422.698 310.572C422.548 310.24 422.42 309.91 422.313 309.568C422.174 309.162 422.046 308.745 421.939 308.317C421.629 307.056 421.469 305.742 421.49 304.385L422.068 295.685L423.991 295.727L446.232 296.24L453.05 296.401L469.851 296.785L475.44 296.913L477.876 296.966L477.951 298.773L478.23 305.196Z" fill="#07113D"/>
<path d="M467.567 392.69C460.466 392.953 456.141 386.833 455.858 379.177L451.909 318.951C451.626 311.295 457.203 304.817 464.304 304.554C471.404 304.291 477.515 303.833 477.798 311.489L477.907 378.219C478.191 385.875 474.667 392.428 467.567 392.69Z" fill="#07113D"/>
<path opacity="0.12" d="M437.742 305.767C432.781 305.561 428.634 309.499 428.591 314.464C428.433 332.443 427.677 385.827 430.046 388.976C433.14 393.09 440.84 391.635 442.009 389.17C442.911 387.269 445.389 332.94 446.156 314.916C446.363 310.064 443.251 306.187 438.399 305.985L437.742 305.767Z" fill="#4D6199"/>
<path d="M476.69 309.997C476.69 309.997 455.388 309.443 455.58 308.66C455.772 307.876 455.04 298.973 455.04 298.973C455.04 298.973 438.021 297.555 438.105 298.573C438.188 299.59 437.31 307.601 437.31 307.601L424.658 306.337L423.825 293.089L478.466 294.229L476.69 309.997Z" fill="#080B2E"/>
<path d="M461.802 252.179H430.692V295.842H461.802V252.179Z" fill="white"/>
<path d="M478.271 293.113V311.678L426.41 311.913C423.656 311.925 421.405 309.697 421.361 306.914L421.142 293.113L478.271 293.113Z" fill="#07113D"/>
<path d="M418.686 308.266L421.137 308.291L421.94 308.316L422.984 308.328H423.298L424.366 308.354H425.12L425.912 308.366L437.937 308.567L444.885 308.68L444.936 308.153L445.991 298.363L446.23 296.24L446.28 295.851L446.519 293.551L446.557 293.111L449.208 268.533C449.233 268.382 449.246 268.281 449.246 268.281C449.246 268.281 449.422 269.663 449.635 271.196L449.773 272.202L452.601 293.111L452.676 293.702L452.978 295.85L453.053 296.403L453.38 298.853L454.712 308.679H479.806V197.422C479.806 195.122 479.454 192.899 478.763 190.825C478.763 190.812 478.763 190.812 478.75 190.8C478.21 189.154 477.468 187.584 476.539 186.151V186.138C476.539 186.113 476.526 186.113 476.514 186.1C474.83 183.449 472.58 181.211 469.917 179.528C469.25 179.114 468.572 178.737 467.856 178.385C465.619 177.316 463.169 176.626 460.58 176.4C459.964 176.349 459.336 176.311 458.708 176.311H436.391C435.184 176.311 434.041 176.449 432.973 176.714C432.96 176.714 432.923 176.726 432.91 176.726C431.603 177.04 430.397 177.556 429.279 178.234C428.311 178.812 427.419 179.515 426.615 180.307C426.602 180.307 426.602 180.307 426.602 180.307L426.552 180.357C421.74 185.082 419.502 193.249 419.502 200.877L419.477 203.24L419.465 205.89L419.44 208.906L419.402 212.827L419.389 214.699L419.327 225.092L418.686 308.266Z" fill="#591239"/>
<path d="M449.487 240.308L448.976 177.819H448.018C448.018 178.22 448.182 205.498 448.345 233.382L449.487 240.308Z" fill="#9995A7"/>
<path d="M448.567 241.945C448.567 241.945 448.464 275 448.464 274.59C448.464 274.181 449.247 268.282 449.247 268.282C449.247 268.282 450.306 276.228 450.306 275.409C450.306 274.59 451.023 240.206 451.023 240.206L448.567 241.945Z" fill="#07113D"/>
<path d="M449.795 246.994L466.903 194.589L463.083 193.224L468.099 177.634L460.472 175.644L436.918 175.442L429.068 177.406L433.104 193.395L429.01 194.759L449.795 246.994Z" fill="#07113D"/>
<path d="M437.237 171.244L460.588 171.585V176.496L449.385 240.103L437.033 176.154L437.237 171.244Z" fill="white"/>
<path opacity="0.73" d="M438.569 178.677L448.294 173.082L459.223 178.677L449.931 179.453L446.111 179.355L438.569 178.677Z" fill="#9995A7"/>
<path d="M444.543 176.826L446.819 180.706H450.119L452.168 176.995L448.408 173.878L444.543 176.826Z" fill="#D93838"/>
<path d="M444.224 213.463C444.224 213.008 446.819 180.706 446.819 180.706L450.119 180.364L453.937 214.493L449.55 240.994L444.224 213.463Z" fill="#D93838"/>
<path opacity="0.41" d="M479.811 230.021V308.68H477.77C477.717 308.926 471.061 308.618 471.061 308.618L471.689 291.34C464.977 294.599 453.447 300.788 453.447 300.788L450.686 277.765L455.673 277.943L471.689 264.009L473.888 217.201L479.811 230.021Z" fill="#07113D"/>
<path d="M454.501 285.623L441.577 292.902C440.783 293.349 439.767 293.065 439.32 292.271L439.078 291.841C438.631 291.047 438.915 290.031 439.709 289.584L452.632 282.305C453.426 281.858 454.442 282.142 454.89 282.936L455.132 283.366C455.579 284.16 455.295 285.176 454.501 285.623Z" fill="#F4A891"/>
<path d="M461.993 284.713L447.232 283.266C446.324 283.178 445.655 282.363 445.744 281.456L445.792 280.964C445.881 280.057 446.696 279.388 447.603 279.477L462.365 280.923C463.272 281.012 463.942 281.827 463.853 282.734L463.804 283.224C463.715 284.132 462.9 284.802 461.993 284.713Z" fill="#F4A891"/>
<path d="M453.834 291.642L443.372 297.534C442.578 297.982 441.562 297.698 441.115 296.904L440.873 296.474C440.425 295.68 440.709 294.664 441.503 294.217L451.964 288.324C452.759 287.877 453.775 288.161 454.222 288.955L454.464 289.385C454.912 290.179 454.628 291.195 453.834 291.642Z" fill="#F4A891"/>
<path d="M459.221 294.002L446.917 300.932C446.123 301.379 445.107 301.095 444.66 300.301L444.418 299.871C443.971 299.077 444.255 298.061 445.049 297.614L457.352 290.684C458.146 290.237 459.162 290.521 459.609 291.315L459.851 291.745C460.299 292.539 460.015 293.555 459.221 294.002Z" fill="#F4A891"/>
<path d="M446.26 286.247C446.39 286.166 447.735 285.067 449.189 283.872C451.699 281.808 454.666 280.371 457.842 279.68L463.923 278.357C463.923 278.357 467.323 287.777 467.028 288.114C459.808 296.336 453.876 294.807 453.876 294.807L446.26 286.247Z" fill="#F4A891"/>
<path d="M485.03 201.786C485.03 201.786 492.053 216.831 496.957 229.881C498.315 233.508 499.51 236.976 500.353 239.926C500.593 240.783 500.815 241.631 500.997 242.475C503.397 253.049 501.517 262.224 492.743 269.196C492.662 269.26 465.822 288.657 465.822 288.657L459.06 279.382L484.81 257.338C487.729 255.077 487.871 247.641 487.034 243.531C486.971 243.212 486.9 242.912 486.824 242.638C486.238 240.507 485.406 237.989 484.42 235.235C478.473 218.714 469.21 193.335 469.21 193.335L485.03 201.786Z" fill="#F4A891"/>
<path d="M457.279 278.883L464.993 290.753L468.052 287.943L459.748 276.739L457.279 278.883Z" fill="white"/>
<path d="M466.139 200.447C466.635 201.829 484.191 242.617 484.191 242.617C484.191 242.617 487.648 248.816 482.587 256.04C477.526 263.263 459.016 275.939 459.016 275.939L467.893 290.703L497.045 267.979C497.045 267.979 507.341 259.679 502.993 243.843C498.646 228.007 479.753 191.442 479.753 191.442C479.753 191.442 472.773 177.303 467.429 187.279C467.428 187.278 464.436 195.705 466.139 200.447Z" fill="#591239"/>
<path opacity="0.41" d="M398.492 277.517L398.668 277.957L404.989 275.644C404.989 275.644 397.625 246.04 403.77 232.481C406.245 227.04 412.93 219.425 419.402 212.828L419.389 214.701L419.327 225.093L418.685 308.266L421.136 308.291L421.94 308.316L422.983 308.328H423.297L422.43 209.799L422.368 203.378C422.368 203.378 421.249 204.283 419.465 205.892C413.596 211.145 400.478 223.848 395.665 236.364C389.382 252.699 398.492 277.517 398.492 277.517Z" fill="#07113D"/>
<path d="M184.438 385.366H192.841C194.114 385.366 195.145 384.335 195.145 383.062V377.677H182.134V383.062C182.134 384.335 183.165 385.366 184.438 385.366Z" fill="#9995A7"/>
<path d="M184.779 383.302H192.056C193.64 383.302 194.924 382.018 194.924 380.435V359.393C194.924 356.266 192.388 353.73 189.26 353.73H187.575C184.448 353.73 181.912 356.266 181.912 359.393V380.435C181.912 382.019 183.196 383.302 184.779 383.302Z" fill="#07113D"/>
<path d="M192.83 360.967L192.377 370.614C192.271 372.875 190.408 374.653 188.145 374.653C185.805 374.653 183.908 372.756 183.908 370.416V354.84L187.854 355.222C190.778 355.504 192.967 358.032 192.83 360.967Z" fill="#DE9986"/>
<path d="M185.028 380.567H191.955C192.734 380.567 193.371 379.929 193.371 379.151V378.729C193.371 377.951 192.734 377.313 191.955 377.313H185.028C184.25 377.313 183.613 377.951 183.613 378.729V379.151C183.613 379.929 184.25 380.567 185.028 380.567Z" fill="#2C3765"/>
<path d="M176.74 364.919C180.6 366.463 191.174 365.422 191.892 363.471C193.92 357.97 191.024 355.654 191.024 355.654L178.284 343.204L176.74 364.919Z" fill="#DE9986"/>
<path d="M177.204 365.465C172.273 365.226 168.492 357.689 168.73 352.758L170.547 317.314C170.785 312.383 175.015 308.544 179.945 308.782C184.876 309.021 188.715 313.25 188.477 318.18L186.681 354.495C186.442 359.426 182.134 365.703 177.204 365.465Z" fill="#F4A891"/>
<path d="M181.826 284.37C181.922 285.222 181.309 285.99 180.457 286.086C179.605 286.182 178.836 285.568 178.741 284.716C178.645 283.864 179.259 283.096 180.11 283C180.963 282.905 181.731 283.518 181.826 284.37Z" fill="#061D48"/>
<path d="M216.892 129.043L221.714 150.666C221.793 157.752 216.635 163.834 209.621 164.853C197.791 166.571 180.937 167.058 175.974 157.213C172.701 150.711 168.765 141.214 168.765 133.434V129.043C168.765 115.755 179.537 104.983 192.825 104.983H192.833C206.122 104.983 216.892 115.753 216.892 129.043Z" fill="#DB734C"/>
<path d="M200.147 471.068H191.744C190.471 471.068 189.44 470.036 189.44 468.764V463.379H202.451V468.764C202.451 470.036 201.42 471.068 200.147 471.068Z" fill="#9995A7"/>
<path d="M199.806 465.819H192.529C190.946 465.819 189.662 464.535 189.662 462.952V441.91C189.662 438.783 192.197 436.247 195.325 436.247H197.01C200.137 436.247 202.673 438.783 202.673 441.91V462.952C202.673 464.535 201.389 465.819 199.806 465.819Z" fill="#07113D"/>
<path d="M211.521 361.986C207.91 393.099 203.288 424.575 201.052 439.328C200.919 440.188 200.795 440.987 200.68 441.732C200.068 445.724 199.712 447.977 199.712 447.977L191.95 447.534L192.216 441.891L192.375 438.333L195.977 361.027L199.472 285.788L200.821 256.796C200.821 256.796 211.467 255.465 215.903 286.516C216.223 288.742 216.408 291.466 216.488 294.625V294.633C216.871 310.159 214.546 335.949 211.521 361.986Z" fill="#F4A891"/>
<path d="M191.756 443.484L192.208 453.131C192.314 455.391 194.177 457.169 196.44 457.169C198.78 457.169 200.677 455.272 200.677 452.932V437.357L196.732 437.738C193.806 438.021 191.618 440.548 191.756 443.484Z" fill="#F4A891"/>
<path d="M199.557 463.083H192.63C191.851 463.083 191.214 462.446 191.214 461.667V461.246C191.214 460.467 191.851 459.83 192.63 459.83H199.557C200.335 459.83 200.973 460.467 200.973 461.246V461.667C200.973 462.446 200.335 463.083 199.557 463.083Z" fill="#2C3765"/>
<path d="M200.492 157.516H187.945V222.471H200.492V157.516Z" fill="#F4A891"/>
<path d="M216.31 140.509C216.244 142.633 214.638 144.469 212.584 144.831C212.394 144.864 212.198 144.889 211.995 144.896C211.905 144.914 211.8 144.905 211.695 144.905L210.313 144.866L210.393 141.97L210.413 141.321L210.571 136.066L211.961 136.106C212.091 136.108 212.203 136.117 212.323 136.135L212.331 136.136C212.508 136.15 212.684 136.18 212.851 136.219C212.851 136.219 212.859 136.212 212.859 136.219C213.728 136.396 214.504 136.808 215.086 137.424C215.869 138.253 216.343 139.3 216.31 140.509Z" fill="#F4A891"/>
<path d="M169.954 140.366C170.02 142.49 171.626 144.326 173.68 144.688C173.869 144.721 174.066 144.746 174.269 144.753C174.359 144.771 174.464 144.762 174.569 144.762L175.951 144.723L175.871 141.827L175.85 141.179L175.693 135.924L174.303 135.963C174.173 135.965 174.061 135.975 173.941 135.993L173.933 135.993C173.756 136.008 173.58 136.038 173.413 136.076C173.413 136.076 173.405 136.069 173.405 136.077C172.536 136.254 171.759 136.666 171.177 137.283C170.395 138.11 169.921 139.157 169.954 140.366Z" fill="#F4A891"/>
<path d="M195.786 164.862H190.758C181.428 164.862 173.866 157.299 173.866 147.969V132.56C173.866 123.231 181.429 115.668 190.758 115.668H195.786C205.115 115.668 212.678 123.231 212.678 132.56V147.969C212.678 157.299 205.115 164.862 195.786 164.862Z" fill="#FFC7B0"/>
<path d="M191.454 145.554C191.454 145.554 191.747 147.456 194.424 147.385C196.779 147.321 197.025 145.669 197.025 145.669L191.454 145.554Z" fill="#F4A891"/>
<path d="M181.3 131.904C181.3 131.904 185.537 129.721 189.724 132.276" stroke="#DB734C" stroke-width="2.704" stroke-miterlimit="10" stroke-linecap="round"/>
<path d="M189.301 151.595C189.258 151.723 190.595 156.518 194.049 156.626C197.502 156.734 199.151 151.658 199.151 151.658L189.301 151.595Z" fill="white"/>
<path d="M181.81 137.95C181.81 137.95 185.325 135.703 188.364 138.29" stroke="#07113D" stroke-width="2.204" stroke-miterlimit="10" stroke-linecap="round"/>
<g opacity="0.18">
<path d="M189.501 144.029C189.456 145.387 187.177 146.413 184.411 146.32C181.645 146.228 179.439 145.052 179.484 143.694C179.529 142.336 181.808 141.31 184.574 141.403C187.34 141.495 189.546 142.671 189.501 144.029Z" fill="#D93838"/>
</g>
<path d="M207.107 131.969C207.107 131.969 202.905 129.718 198.679 132.206" stroke="#DB734C" stroke-width="2.704" stroke-miterlimit="10" stroke-linecap="round"/>
<path d="M206.501 138.002C206.501 138.002 203.023 135.7 199.943 138.237" stroke="#07113D" stroke-width="2.204" stroke-miterlimit="10" stroke-linecap="round"/>
<g opacity="0.18">
<path d="M198.714 143.945C198.738 145.304 201 146.367 203.767 146.318C206.534 146.27 208.759 145.129 208.735 143.77C208.712 142.411 206.449 141.349 203.682 141.398C200.915 141.446 198.691 142.587 198.714 143.945Z" fill="#D93838"/>
</g>
<path d="M189.169 116.781C189.317 117.522 192.717 123.904 200.554 125.684C208.391 127.465 211.791 133.55 212.235 140.079C212.678 146.608 213.122 147.944 213.122 147.944L214.008 129.691C214.156 117.819 203.92 109.508 192.569 109.508C181.218 109.508 172.017 118.744 172.017 130.136C172.017 130.136 172.165 132.251 176.748 126.018C181.332 119.786 189.169 116.781 189.169 116.781Z" fill="#DB734C"/>
<path d="M213.193 253.083L218.152 281.01L166.546 280.86L172.898 251.149L173.643 247.671L169.917 216.435L167.877 199.286C168.543 177.995 187.634 174.526 187.634 174.526L193.604 210.269L200.834 175.102C200.834 175.102 217.779 179.777 218.444 199.286L215.881 219.256L212.235 247.671L213.193 253.083Z" fill="#591239"/>
<path d="M212.388 347.927C212.203 350.023 211.898 353.151 211.155 358.532C210.045 364.204 206.961 367.805 203.386 367.533C200.663 367.321 198.271 364.627 196.727 357.915L196.974 347.68C197.467 347.68 212.141 347.927 212.388 347.927Z" fill="#FFC7B0"/>
<path opacity="0.6" d="M214.452 230.884L171.721 230.292L170.538 217.429C171.967 219.86 177.488 228.075 193.456 219.942C193.456 219.942 205.581 228.37 215.88 219.256L214.452 230.884Z" fill="#240940"/>
<path d="M213.565 244.93H172.757V251.141H213.565V244.93Z" fill="#D93838"/>
<path d="M172.783 251.133C172.611 251.802 169.826 252.478 168.151 260.688C165.255 274.875 163.718 283.834 164.508 296.821L161.491 344.652L218.239 344.073L222.286 297.233C223.103 287.72 222.662 278.157 220.988 268.788C219.878 262.57 217.415 256.67 213.897 251.423L172.783 251.133Z" fill="#1C2751"/>
<path opacity="0.17" d="M169.213 344.748C169.702 344.657 186.97 344.459 186.97 344.459V346.485L169.019 346.581L169.213 344.748Z" fill="#B95241"/>
<path d="M177.399 257.569L184.77 267.777C185.223 268.404 186.107 268.547 186.734 268.094L187.074 267.849C187.702 267.396 187.844 266.512 187.391 265.885L180.02 255.677C179.567 255.05 178.683 254.907 178.055 255.36L177.716 255.605C177.089 256.058 176.946 256.942 177.399 257.569Z" fill="#FFC7B0"/>
<path d="M176.224 262.836L182.451 270.906C182.923 271.519 183.811 271.633 184.424 271.161L184.755 270.905C185.368 270.433 185.483 269.545 185.01 268.932L178.784 260.862C178.311 260.249 177.423 260.135 176.811 260.607L176.479 260.863C175.866 261.335 175.751 262.223 176.224 262.836Z" fill="#FFC7B0"/>
<path d="M175.069 255.218L184.103 259.938C184.789 260.295 185.643 260.028 186.002 259.342L186.196 258.971C186.554 258.285 186.286 257.431 185.6 257.072L176.566 252.353C175.88 251.994 175.026 252.262 174.668 252.948L174.474 253.319C174.115 254.005 174.383 254.859 175.069 255.218Z" fill="#FFC7B0"/>
<path d="M170.506 262.001L177.868 271.461C178.343 272.072 179.231 272.183 179.842 271.708L180.172 271.451C180.783 270.976 180.894 270.087 180.419 269.476L173.057 260.016C172.582 259.405 171.694 259.294 171.083 259.769L170.752 260.026C170.142 260.501 170.031 261.39 170.506 262.001Z" fill="#FFC7B0"/>
<path d="M183.586 260.498C183.505 260.397 182.738 259.137 181.911 257.77C180.484 255.409 178.514 253.422 176.167 251.972L171.671 249.197C171.671 249.197 166.29 255.78 166.432 256.133C169.892 264.753 175.073 265.202 175.073 265.202L183.586 260.498Z" fill="#FFC7B0"/>
<path d="M169.367 260.048C169.367 260.048 147.029 234.786 146.963 234.711C141.136 227.697 140.39 218.7 145.563 211.13C154.639 197.846 165.421 187.78 165.421 187.78L174.91 195.811C174.91 195.811 155.23 213.95 154.229 219.792C153.825 222.151 154.957 224.474 156.063 226.37C161.495 235.715 173.932 251.309 173.932 251.309L169.367 260.048Z" fill="#FFC7B0"/>
<path d="M156.473 195.639C156.473 195.639 172.535 208.114 172.535 207.449C172.535 207.045 182.15 203.577 184.654 194.867C186.278 189.22 181.185 176.916 181.185 176.916C181.185 176.916 166.51 181.355 156.473 195.639Z" fill="#591239"/>
<path d="M192.044 237.203L182.211 241.069C181.491 241.352 180.671 240.994 180.387 240.274L180.234 239.884C179.951 239.164 180.309 238.343 181.029 238.06L190.862 234.194C191.582 233.911 192.402 234.269 192.686 234.989L192.839 235.379C193.122 236.099 192.765 236.92 192.044 237.203Z" fill="#FFC7B0"/>
<path d="M192.845 241.142L183.246 244.568C182.517 244.829 181.708 244.445 181.447 243.716L181.306 243.322C181.046 242.594 181.43 241.784 182.158 241.524L191.758 238.098C192.486 237.838 193.296 238.221 193.556 238.95L193.697 239.344C193.957 240.073 193.573 240.883 192.845 241.142Z" fill="#FFC7B0"/>
<path d="M193.397 237.189L183.246 236.28C182.474 236.211 181.901 235.524 181.97 234.753L182.008 234.336C182.077 233.566 182.764 232.991 183.534 233.061L193.686 233.97C194.457 234.039 195.031 234.726 194.962 235.496L194.925 235.914C194.855 236.685 194.168 237.258 193.397 237.189Z" fill="#FFC7B0"/>
<path d="M196.563 244.011L185.257 247.994C184.527 248.252 183.72 247.865 183.462 247.135L183.324 246.74C183.067 246.01 183.453 245.203 184.183 244.945L195.489 240.962C196.219 240.705 197.027 241.092 197.284 241.822L197.423 242.217C197.68 242.947 197.293 243.754 196.563 244.011Z" fill="#FFC7B0"/>
<path d="M183.377 237.031C183.5 236.99 184.825 236.344 186.26 235.64C188.737 234.425 191.468 233.817 194.227 233.866L199.51 233.959C199.51 233.959 200.481 242.406 200.171 242.626C192.602 248.01 187.999 245.589 187.999 245.589L183.377 237.031Z" fill="#FFC7B0"/>
<path d="M195.585 244.334C195.585 244.334 223.194 237.351 223.29 237.323C231.982 234.57 238.731 228.131 238.012 218.991C237.13 207.779 221.565 187.971 221.565 187.971L208.583 190.128C208.583 190.128 223.546 212.293 225.291 215.816C225.408 216.05 225.469 216.186 225.476 216.205C225.97 218.083 225.804 219.599 225.236 220.843C224.269 223.033 222.094 224.39 220.138 225.387C210.518 230.315 196.464 234.514 196.464 234.514L195.585 244.334Z" fill="#FFC7B0"/>
<path d="M229.532 196.122C229.532 196.122 217.286 207.702 217.194 207.042C217.138 206.643 207.136 204.538 203.451 196.258C201.062 190.89 205.501 177.881 205.501 177.881C205.501 177.881 217.615 183.364 229.532 196.122Z" fill="#591239"/>
<path d="M0 308.229C0 308.229 31.2235 348.106 69.4729 341.596C118.903 333.182 128.732 300.268 181.07 299.425C232.36 298.599 260.723 313.112 284.324 293.58L281.068 275.269C281.068 275.269 270.896 290.325 243.225 287.884C215.555 285.442 189.512 272.828 150.042 289.104C105.953 307.285 90.6323 329.388 62.9626 324.505C35.2922 319.623 0 286.851 0 286.851V308.229Z" fill="#D93838"/>
<path d="M509.089 303.293C497.121 303.821 490.211 302.787 468.656 291.14C457.465 285.096 448.472 280.663 440.431 278.234C428.151 274.539 418.083 275.524 405.786 282.594C377.097 299.075 331.525 285.44 331.525 285.44L331.324 261.84C331.324 261.84 334.779 269.167 362.451 270.794C376.407 271.612 391.148 266.738 405.073 262.69C405.073 262.69 405.073 262.69 405.081 262.69C418.764 258.714 431.646 255.547 442.203 259.395C460.319 266.01 483.149 287.044 509.089 303.293Z" fill="#D93838"/>
<path d="M628 317.615C628 317.615 613.114 326.131 564.279 323.693C544.872 322.715 526.363 314.098 509.209 303.364C509.168 303.348 509.129 303.316 509.089 303.293C509.136 303.293 509.177 303.293 509.225 303.284C518.299 302.875 530.291 301.601 553.698 303.348C608.224 307.413 628 292.345 628 292.345V317.615Z" fill="#D93838"/>
<path d="M575.62 269.38L578.484 262.714C578.818 261.937 579.665 261.554 580.365 261.863L580.494 261.919C581.194 262.228 581.494 263.117 581.16 263.895L578.296 270.56C577.962 271.338 577.115 271.721 576.415 271.412L576.286 271.355C575.586 271.046 575.286 270.157 575.62 269.38Z" fill="#FFC7B0"/>
<path d="M587.663 262.779C587.663 262.779 587.562 267.611 587.569 269.007C587.582 271.708 586.949 273.089 585.275 273.352L581.818 272.909C579.955 272.364 579.101 272.012 578.86 270.333L578.066 264.806C577.825 263.127 579.28 258.384 580.954 258.121L584.373 257.419C586.049 257.155 587.423 261.1 587.663 262.779Z" fill="#FFC7B0"/>
<path d="M581.496 271.334L581.104 277.692C581.072 278.72 580.501 279.553 579.836 279.542C579.171 279.53 578.653 278.68 578.686 277.651L579.077 271.293C579.109 270.265 579.68 269.432 580.345 269.443C581.011 269.455 581.529 270.305 581.496 271.334Z" fill="#FFC7B0"/>
<path d="M584.322 272.82L583.931 279.178C583.899 280.207 583.328 281.039 582.662 281.028C581.997 281.017 581.479 280.166 581.512 279.138L581.903 272.779C581.935 271.751 582.506 270.918 583.171 270.93C583.837 270.941 584.354 271.791 584.322 272.82Z" fill="#FFC7B0"/>
<path d="M587.333 271.192L586.941 277.55C586.909 278.579 586.338 279.411 585.673 279.4C585.008 279.389 584.49 278.538 584.523 277.51L584.914 271.152C584.946 270.123 585.517 269.291 586.182 269.302C586.847 269.313 587.365 270.163 587.333 271.192Z" fill="#FFC7B0"/>
<path d="M544.245 227.022L539.178 231.948C538.587 232.522 538.522 233.448 539.034 234.005L539.128 234.107C539.64 234.664 540.542 234.65 541.133 234.076L546.2 229.15C546.791 228.576 546.856 227.65 546.345 227.093L546.25 226.991C545.738 226.433 544.836 226.447 544.245 227.022Z" fill="#FFC7B0"/>
<path d="M543.657 240.308C543.657 240.308 548.041 238.273 549.322 237.718C551.8 236.645 552.81 235.51 552.378 233.871L550.583 230.885C549.335 229.398 548.67 228.757 547.036 229.212L541.656 230.706C540.022 231.16 536.264 234.4 536.696 236.038L537.427 239.451C537.859 241.088 542.022 240.761 543.657 240.308Z" fill="#FFC7B0"/>
<path d="M549.011 231.221L554.675 228.307C555.604 227.864 556.137 227.007 555.86 226.402C555.582 225.797 554.595 225.665 553.666 226.108L548.002 229.022C547.073 229.465 546.54 230.322 546.818 230.927C547.095 231.532 548.082 231.664 549.011 231.221Z" fill="#FFC7B0"/>
<path d="M551.508 233.212L557.173 230.298C558.102 229.855 558.635 228.998 558.358 228.393C558.08 227.788 557.093 227.656 556.164 228.099L550.5 231.013C549.571 231.456 549.038 232.312 549.316 232.917C549.593 233.522 550.579 233.654 551.508 233.212Z" fill="#FFC7B0"/>
<path d="M551.228 236.623L556.892 233.709C557.821 233.266 558.354 232.409 558.076 231.804C557.799 231.199 556.812 231.067 555.883 231.509L550.219 234.423C549.29 234.866 548.757 235.723 549.035 236.328C549.312 236.933 550.299 237.065 551.228 236.623Z" fill="#FFC7B0"/>
<path opacity="0.58" d="M442.203 259.397C460.319 266.01 483.149 287.044 509.089 303.293C497.121 303.821 490.211 302.787 468.656 291.14C457.465 285.096 448.472 280.663 440.431 278.234C426.243 270.514 415.061 265.833 405.081 262.691C418.764 258.716 431.645 255.549 442.203 259.397Z" fill="#A82D2D"/>
<path d="M509.225 303.285C509.217 303.317 509.209 303.341 509.209 303.365C509.168 303.349 509.129 303.317 509.089 303.293C509.136 303.293 509.177 303.293 509.225 303.285Z" fill="#727377"/>
<path d="M324.377 131.413H313.817C312.918 131.413 312.182 130.678 312.182 129.778V124.179C312.182 123.281 312.918 122.544 313.817 122.544H324.377C325.277 122.544 326.012 123.28 326.012 124.179V129.778C326.012 130.678 325.277 131.413 324.377 131.413Z" stroke="#2B396D" stroke-width="2.2976" stroke-miterlimit="10"/>
<path d="M303.716 131.413H293.958C293.059 131.413 292.323 130.678 292.323 129.778V124.179C292.323 123.281 293.058 122.544 293.958 122.544H303.716C304.616 122.544 305.351 123.28 305.351 124.179V129.778C305.351 130.677 304.616 131.413 303.716 131.413Z" stroke="#2B396D" stroke-width="2.2976" stroke-miterlimit="10"/>
</svg>
